# MagicaVoxel @ ephtracy

# material
mtllib crate_reinforced_lid.mtl
usemtl palette

# normals
vn -1 0 0
vn 1 0 0
vn 0 0 1
vn 0 0 -1
vn 0 -1 0
vn 0 1 0

# texcoords
vt 0.181641 0.5
vt 0.185547 0.5
vt 0.865234 0.5
vt 0.892578 0.5
vt 0.896484 0.5
vt 0.900391 0.5

# verts
v -5 8 5
v -5 8 4
v -5 8 3
v -5 8 1
v -5 8 -1
v -5 8 -3
v -5 8 -4
v -5 8 -5
v -5 9 5
v -5 9 4
v -5 9 3
v -5 9 1
v -5 9 -1
v -5 9 -3
v -5 9 -4
v -5 9 -5
v -5 10 5
v -5 10 3
v -5 10 -3
v -5 10 -5
v -4 8 3
v -4 8 1
v -4 8 -1
v -4 8 -3
v -4 9 3
v -4 9 1
v -4 9 -1
v -4 9 -3
v -1 8 5
v -1 8 4
v -1 8 -4
v -1 8 -5
v -1 9 5
v -1 9 4
v -1 9 3
v -1 9 -3
v -1 9 -4
v -1 9 -5
v -1 10 4
v -1 10 3
v -1 10 -3
v -1 10 -4
v 3 8 5
v 3 8 4
v 3 8 -4
v 3 8 -5
v 3 9 5
v 3 9 4
v 3 9 3
v 3 9 1
v 3 9 -1
v 3 9 -3
v 3 9 -4
v 3 9 -5
v 3 10 4
v 3 10 3
v 3 10 1
v 3 10 -1
v 3 10 -3
v 3 10 -4
v 4 9 3
v 4 9 1
v 4 9 -1
v 4 9 -3
v 4 10 3
v 4 10 1
v 4 10 -1
v 4 10 -3
v -4 9 3
v -4 9 1
v -4 9 -1
v -4 9 -3
v -4 10 3
v -4 10 1
v -4 10 -1
v -4 10 -3
v -3 8 5
v -3 8 4
v -3 8 -4
v -3 8 -5
v -3 9 5
v -3 9 4
v -3 9 3
v -3 9 1
v -3 9 -1
v -3 9 -3
v -3 9 -4
v -3 9 -5
v -3 10 4
v -3 10 3
v -3 10 1
v -3 10 -1
v -3 10 -3
v -3 10 -4
v 1 8 5
v 1 8 4
v 1 8 -4
v 1 8 -5
v 1 9 5
v 1 9 4
v 1 9 3
v 1 9 -3
v 1 9 -4
v 1 9 -5
v 1 10 4
v 1 10 3
v 1 10 -3
v 1 10 -4
v 4 8 3
v 4 8 1
v 4 8 -1
v 4 8 -3
v 4 9 3
v 4 9 1
v 4 9 -1
v 4 9 -3
v 5 8 5
v 5 8 4
v 5 8 3
v 5 8 1
v 5 8 -1
v 5 8 -3
v 5 8 -4
v 5 8 -5
v 5 9 5
v 5 9 4
v 5 9 3
v 5 9 1
v 5 9 -1
v 5 9 -3
v 5 9 -4
v 5 9 -5
v 5 10 5
v 5 10 3
v 5 10 -3
v 5 10 -5
v -5 8 5
v -5 9 5
v -5 10 5
v -4 8 5
v -4 9 5
v -3 8 5
v -3 9 5
v -3 10 5
v -1 8 5
v -1 9 5
v 1 8 5
v 1 9 5
v 3 8 5
v 3 9 5
v 3 10 5
v 4 8 5
v 4 9 5
v 5 8 5
v 5 9 5
v 5 10 5
v -3 8 4
v -3 9 4
v -1 8 4
v -1 9 4
v 1 8 4
v 1 9 4
v 3 8 4
v 3 9 4
v -5 8 1
v -5 9 1
v -4 8 1
v -4 9 1
v -4 10 1
v -3 9 1
v -3 10 1
v 3 9 1
v 3 10 1
v 4 8 1
v 4 9 1
v 4 10 1
v 5 8 1
v 5 9 1
v -5 8 -3
v -5 9 -3
v -4 8 -3
v -4 9 -3
v -4 10 -3
v -3 9 -3
v -3 10 -3
v -1 9 -3
v -1 10 -3
v 1 9 -3
v 1 10 -3
v 3 9 -3
v 3 10 -3
v 4 8 -3
v 4 9 -3
v 4 10 -3
v 5 8 -3
v 5 9 -3
v -3 9 -4
v -3 10 -4
v -1 9 -4
v -1 10 -4
v 1 9 -4
v 1 10 -4
v 3 9 -4
v 3 10 -4
v -3 9 4
v -3 10 4
v -1 9 4
v -1 10 4
v 1 9 4
v 1 10 4
v 3 9 4
v 3 10 4
v -5 8 3
v -5 9 3
v -4 8 3
v -4 9 3
v -4 10 3
v -3 9 3
v -3 10 3
v -1 9 3
v -1 10 3
v 1 9 3
v 1 10 3
v 3 9 3
v 3 10 3
v 4 8 3
v 4 9 3
v 4 10 3
v 5 8 3
v 5 9 3
v -5 8 -1
v -5 9 -1
v -4 8 -1
v -4 9 -1
v -4 10 -1
v -3 9 -1
v -3 10 -1
v 3 9 -1
v 3 10 -1
v 4 8 -1
v 4 9 -1
v 4 10 -1
v 5 8 -1
v 5 9 -1
v -3 8 -4
v -3 9 -4
v -1 8 -4
v -1 9 -4
v 1 8 -4
v 1 9 -4
v 3 8 -4
v 3 9 -4
v -5 8 -5
v -5 9 -5
v -5 10 -5
v -4 8 -5
v -4 9 -5
v -3 8 -5
v -3 9 -5
v -3 10 -5
v -1 8 -5
v -1 9 -5
v 1 8 -5
v 1 9 -5
v 3 8 -5
v 3 9 -5
v 3 10 -5
v 4 8 -5
v 4 9 -5
v 5 8 -5
v 5 9 -5
v 5 10 -5
v -5 8 5
v -4 8 5
v -3 8 5
v -1 8 5
v 1 8 5
v 3 8 5
v 4 8 5
v 5 8 5
v -5 8 4
v -4 8 4
v -3 8 4
v -1 8 4
v 1 8 4
v 3 8 4
v 4 8 4
v 5 8 4
v -5 8 3
v -4 8 3
v 4 8 3
v 5 8 3
v -5 8 1
v -4 8 1
v 4 8 1
v 5 8 1
v -5 8 -1
v -4 8 -1
v 4 8 -1
v 5 8 -1
v -5 8 -3
v -4 8 -3
v 4 8 -3
v 5 8 -3
v -5 8 -4
v -4 8 -4
v -3 8 -4
v -1 8 -4
v 1 8 -4
v 3 8 -4
v 4 8 -4
v 5 8 -4
v -5 8 -5
v -4 8 -5
v -3 8 -5
v -1 8 -5
v 1 8 -5
v 3 8 -5
v 4 8 -5
v 5 8 -5
v -3 9 5
v -1 9 5
v 1 9 5
v 3 9 5
v -3 9 4
v -1 9 4
v 1 9 4
v 3 9 4
v -5 9 3
v -4 9 3
v 4 9 3
v 5 9 3
v -5 9 1
v -4 9 1
v 4 9 1
v 5 9 1
v -5 9 -1
v -4 9 -1
v 4 9 -1
v 5 9 -1
v -5 9 -3
v -4 9 -3
v 4 9 -3
v 5 9 -3
v -3 9 -4
v -1 9 -4
v 1 9 -4
v 3 9 -4
v -3 9 -5
v -1 9 -5
v 1 9 -5
v 3 9 -5
v -3 9 4
v -1 9 4
v 1 9 4
v 3 9 4
v -4 9 3
v -3 9 3
v -1 9 3
v 1 9 3
v 3 9 3
v 4 9 3
v -4 9 1
v -3 9 1
v 3 9 1
v 4 9 1
v -4 9 -1
v -3 9 -1
v 3 9 -1
v 4 9 -1
v -4 9 -3
v -3 9 -3
v -1 9 -3
v 1 9 -3
v 3 9 -3
v 4 9 -3
v -3 9 -4
v -1 9 -4
v 1 9 -4
v 3 9 -4
v -5 10 5
v -3 10 5
v 3 10 5
v 5 10 5
v -4 10 4
v -3 10 4
v -1 10 4
v 1 10 4
v 3 10 4
v 4 10 4
v -5 10 3
v -4 10 3
v -3 10 3
v -1 10 3
v 1 10 3
v 3 10 3
v 4 10 3
v 5 10 3
v -4 10 1
v -3 10 1
v 3 10 1
v 4 10 1
v -4 10 -1
v -3 10 -1
v 3 10 -1
v 4 10 -1
v -5 10 -3
v -4 10 -3
v -3 10 -3
v -1 10 -3
v 1 10 -3
v 3 10 -3
v 4 10 -3
v 5 10 -3
v -4 10 -4
v -3 10 -4
v -1 10 -4
v 1 10 -4
v 3 10 -4
v 4 10 -4
v -5 10 -5
v -3 10 -5
v 3 10 -5
v 5 10 -5

# faces
f 9/6/1 2/6/1 1/6/1
f 10/3/1 3/3/1 2/3/1
f 10/6/1 2/6/1 9/6/1
f 11/3/1 3/3/1 10/3/1
f 12/4/1 5/4/1 4/4/1
f 13/4/1 5/4/1 12/4/1
f 14/3/1 7/3/1 6/3/1
f 15/6/1 8/6/1 7/6/1
f 15/3/1 7/3/1 14/3/1
f 16/6/1 8/6/1 15/6/1
f 17/5/1 11/5/1 10/5/1
f 17/5/1 10/5/1 9/5/1
f 18/3/1 14/3/1 13/3/1
f 18/5/1 11/5/1 17/5/1
f 18/3/1 13/3/1 12/3/1
f 18/3/1 12/3/1 11/3/1
f 19/5/1 15/5/1 14/5/1
f 19/3/1 14/3/1 18/3/1
f 19/5/1 16/5/1 15/5/1
f 20/5/1 16/5/1 19/5/1
f 25/1/1 22/1/1 21/1/1
f 26/1/1 22/1/1 25/1/1
f 27/1/1 24/1/1 23/1/1
f 28/1/1 24/1/1 27/1/1
f 33/4/1 30/4/1 29/4/1
f 34/4/1 30/4/1 33/4/1
f 37/4/1 32/4/1 31/4/1
f 38/4/1 32/4/1 37/4/1
f 39/4/1 35/4/1 34/4/1
f 40/4/1 35/4/1 39/4/1
f 41/4/1 37/4/1 36/4/1
f 42/4/1 37/4/1 41/4/1
f 47/3/1 44/3/1 43/3/1
f 48/3/1 44/3/1 47/3/1
f 53/3/1 46/3/1 45/3/1
f 54/3/1 46/3/1 53/3/1
f 55/3/1 49/3/1 48/3/1
f 56/3/1 49/3/1 55/3/1
f 57/4/1 51/4/1 50/4/1
f 58/4/1 51/4/1 57/4/1
f 59/3/1 53/3/1 52/3/1
f 60/3/1 53/3/1 59/3/1
f 65/3/1 62/3/1 61/3/1
f 66/3/1 62/3/1 65/3/1
f 67/3/1 64/3/1 63/3/1
f 68/3/1 64/3/1 67/3/1
f 69/3/2 70/3/2 73/3/2
f 73/3/2 70/3/2 74/3/2
f 71/3/2 72/3/2 75/3/2
f 75/3/2 72/3/2 76/3/2
f 77/3/2 78/3/2 81/3/2
f 81/3/2 78/3/2 82/3/2
f 79/3/2 80/3/2 87/3/2
f 87/3/2 80/3/2 88/3/2
f 82/3/2 83/3/2 89/3/2
f 89/3/2 83/3/2 90/3/2
f 84/4/2 85/4/2 91/4/2
f 91/4/2 85/4/2 92/4/2
f 86/3/2 87/3/2 93/3/2
f 93/3/2 87/3/2 94/3/2
f 95/4/2 96/4/2 99/4/2
f 99/4/2 96/4/2 100/4/2
f 97/4/2 98/4/2 103/4/2
f 103/4/2 98/4/2 104/4/2
f 100/4/2 101/4/2 105/4/2
f 105/4/2 101/4/2 106/4/2
f 102/4/2 103/4/2 107/4/2
f 107/4/2 103/4/2 108/4/2
f 109/1/2 110/1/2 113/1/2
f 113/1/2 110/1/2 114/1/2
f 111/1/2 112/1/2 115/1/2
f 115/1/2 112/1/2 116/1/2
f 117/6/2 118/6/2 125/6/2
f 118/3/2 119/3/2 126/3/2
f 125/6/2 118/6/2 126/6/2
f 126/3/2 119/3/2 127/3/2
f 120/4/2 121/4/2 128/4/2
f 128/4/2 121/4/2 129/4/2
f 122/3/2 123/3/2 130/3/2
f 123/6/2 124/6/2 131/6/2
f 130/3/2 123/3/2 131/3/2
f 131/6/2 124/6/2 132/6/2
f 126/5/2 127/5/2 133/5/2
f 125/5/2 126/5/2 133/5/2
f 129/3/2 130/3/2 134/3/2
f 133/5/2 127/5/2 134/5/2
f 128/3/2 129/3/2 134/3/2
f 127/3/2 128/3/2 134/3/2
f 130/5/2 131/5/2 135/5/2
f 134/3/2 130/3/2 135/3/2
f 131/5/2 132/5/2 135/5/2
f 135/5/2 132/5/2 136/5/2
f 140/6/3 138/6/3 137/6/3
f 141/5/3 139/5/3 138/5/3
f 141/6/3 138/6/3 140/6/3
f 142/3/3 141/3/3 140/3/3
f 143/5/3 139/5/3 141/5/3
f 143/3/3 141/3/3 142/3/3
f 144/5/3 139/5/3 143/5/3
f 146/3/3 144/3/3 143/3/3
f 147/4/3 146/4/3 145/4/3
f 148/3/3 144/3/3 146/3/3
f 148/4/3 146/4/3 147/4/3
f 150/3/3 144/3/3 148/3/3
f 151/3/3 144/3/3 150/3/3
f 152/3/3 150/3/3 149/3/3
f 153/5/3 151/5/3 150/5/3
f 153/3/3 150/3/3 152/3/3
f 154/6/3 153/6/3 152/6/3
f 155/5/3 151/5/3 153/5/3
f 155/6/3 153/6/3 154/6/3
f 156/5/3 151/5/3 155/5/3
f 159/2/3 158/2/3 157/2/3
f 160/2/3 158/2/3 159/2/3
f 163/2/3 162/2/3 161/2/3
f 164/2/3 162/2/3 163/2/3
f 167/4/3 166/4/3 165/4/3
f 168/4/3 166/4/3 167/4/3
f 170/4/3 169/4/3 168/4/3
f 171/4/3 169/4/3 170/4/3
f 175/4/3 173/4/3 172/4/3
f 176/4/3 173/4/3 175/4/3
f 177/4/3 175/4/3 174/4/3
f 178/4/3 175/4/3 177/4/3
f 181/3/3 180/3/3 179/3/3
f 182/3/3 180/3/3 181/3/3
f 184/3/3 183/3/3 182/3/3
f 185/3/3 183/3/3 184/3/3
f 188/4/3 187/4/3 186/4/3
f 189/4/3 187/4/3 188/4/3
f 193/3/3 191/3/3 190/3/3
f 194/3/3 191/3/3 193/3/3
f 195/3/3 193/3/3 192/3/3
f 196/3/3 193/3/3 195/3/3
f 199/3/3 198/3/3 197/3/3
f 200/3/3 198/3/3 199/3/3
f 203/3/3 202/3/3 201/3/3
f 204/3/3 202/3/3 203/3/3
f 205/3/4 206/3/4 207/3/4
f 207/3/4 206/3/4 208/3/4
f 209/3/4 210/3/4 211/3/4
f 211/3/4 210/3/4 212/3/4
f 213/3/4 214/3/4 215/3/4
f 215/3/4 214/3/4 216/3/4
f 216/3/4 217/3/4 218/3/4
f 218/3/4 217/3/4 219/3/4
f 220/4/4 221/4/4 222/4/4
f 222/4/4 221/4/4 223/4/4
f 224/3/4 225/3/4 227/3/4
f 227/3/4 225/3/4 228/3/4
f 226/3/4 227/3/4 229/3/4
f 229/3/4 227/3/4 230/3/4
f 231/4/4 232/4/4 233/4/4
f 233/4/4 232/4/4 234/4/4
f 234/4/4 235/4/4 236/4/4
f 236/4/4 235/4/4 237/4/4
f 238/4/4 239/4/4 241/4/4
f 241/4/4 239/4/4 242/4/4
f 240/4/4 241/4/4 243/4/4
f 243/4/4 241/4/4 244/4/4
f 245/2/4 246/2/4 247/2/4
f 247/2/4 246/2/4 248/2/4
f 249/2/4 250/2/4 251/2/4
f 251/2/4 250/2/4 252/2/4
f 253/6/4 254/6/4 256/6/4
f 254/5/4 255/5/4 257/5/4
f 256/6/4 254/6/4 257/6/4
f 256/3/4 257/3/4 258/3/4
f 257/5/4 255/5/4 259/5/4
f 258/3/4 257/3/4 259/3/4
f 259/5/4 255/5/4 260/5/4
f 259/3/4 260/3/4 262/3/4
f 261/4/4 262/4/4 263/4/4
f 262/3/4 260/3/4 264/3/4
f 263/4/4 262/4/4 264/4/4
f 264/3/4 260/3/4 266/3/4
f 266/3/4 260/3/4 267/3/4
f 265/3/4 266/3/4 268/3/4
f 266/5/4 267/5/4 269/5/4
f 268/3/4 266/3/4 269/3/4
f 268/6/4 269/6/4 270/6/4
f 269/5/4 267/5/4 271/5/4
f 270/6/4 269/6/4 271/6/4
f 271/5/4 267/5/4 272/5/4
f 281/6/5 274/6/5 273/6/5
f 282/3/5 275/3/5 274/3/5
f 282/6/5 274/6/5 281/6/5
f 283/3/5 275/3/5 282/3/5
f 284/4/5 277/4/5 276/4/5
f 285/4/5 277/4/5 284/4/5
f 286/3/5 279/3/5 278/3/5
f 287/6/5 280/6/5 279/6/5
f 287/3/5 279/3/5 286/3/5
f 288/6/5 280/6/5 287/6/5
f 289/3/5 282/3/5 281/3/5
f 290/2/5 286/2/5 285/2/5
f 290/3/5 282/3/5 289/3/5
f 290/2/5 283/2/5 282/2/5
f 290/2/5 285/2/5 284/2/5
f 290/2/5 287/2/5 286/2/5
f 290/2/5 284/2/5 283/2/5
f 291/3/5 288/3/5 287/3/5
f 291/2/5 287/2/5 290/2/5
f 292/3/5 288/3/5 291/3/5
f 294/1/5 291/1/5 290/1/5
f 295/1/5 291/1/5 294/1/5
f 297/4/5 294/4/5 293/4/5
f 298/2/5 295/2/5 294/2/5
f 298/4/5 294/4/5 297/4/5
f 299/4/5 296/4/5 295/4/5
f 299/2/5 295/2/5 298/2/5
f 300/4/5 296/4/5 299/4/5
f 302/1/5 299/1/5 298/1/5
f 303/1/5 299/1/5 302/1/5
f 305/3/5 302/3/5 301/3/5
f 306/2/5 303/2/5 302/2/5
f 306/3/5 302/3/5 305/3/5
f 307/2/5 303/2/5 306/2/5
f 308/2/5 303/2/5 307/2/5
f 309/2/5 303/2/5 308/2/5
f 310/2/5 303/2/5 309/2/5
f 311/3/5 304/3/5 303/3/5
f 311/2/5 303/2/5 310/2/5
f 312/3/5 304/3/5 311/3/5
f 313/6/5 306/6/5 305/6/5
f 314/3/5 307/3/5 306/3/5
f 314/6/5 306/6/5 313/6/5
f 315/3/5 307/3/5 314/3/5
f 316/4/5 309/4/5 308/4/5
f 317/4/5 309/4/5 316/4/5
f 318/3/5 311/3/5 310/3/5
f 319/6/5 312/6/5 311/6/5
f 319/3/5 311/3/5 318/3/5
f 320/6/5 312/6/5 319/6/5
f 325/3/5 322/3/5 321/3/5
f 326/3/5 322/3/5 325/3/5
f 327/3/5 324/3/5 323/3/5
f 328/3/5 324/3/5 327/3/5
f 333/3/5 330/3/5 329/3/5
f 334/3/5 330/3/5 333/3/5
f 335/3/5 332/3/5 331/3/5
f 336/3/5 332/3/5 335/3/5
f 341/3/5 338/3/5 337/3/5
f 342/3/5 338/3/5 341/3/5
f 343/3/5 340/3/5 339/3/5
f 344/3/5 340/3/5 343/3/5
f 349/3/5 346/3/5 345/3/5
f 350/3/5 346/3/5 349/3/5
f 351/3/5 348/3/5 347/3/5
f 352/3/5 348/3/5 351/3/5
f 353/2/6 354/2/6 358/2/6
f 358/2/6 354/2/6 359/2/6
f 355/2/6 356/2/6 360/2/6
f 360/2/6 356/2/6 361/2/6
f 358/1/6 359/1/6 363/1/6
f 361/1/6 362/1/6 363/1/6
f 360/1/6 361/1/6 363/1/6
f 359/1/6 360/1/6 363/1/6
f 357/1/6 358/1/6 363/1/6
f 363/1/6 362/1/6 364/1/6
f 364/1/6 362/1/6 365/1/6
f 365/1/6 362/1/6 366/1/6
f 364/2/6 365/2/6 368/2/6
f 368/2/6 365/2/6 369/2/6
f 367/1/6 368/1/6 371/1/6
f 369/1/6 370/1/6 371/1/6
f 368/1/6 369/1/6 371/1/6
f 371/1/6 370/1/6 372/1/6
f 372/1/6 370/1/6 373/1/6
f 373/1/6 370/1/6 374/1/6
f 374/1/6 370/1/6 375/1/6
f 375/1/6 370/1/6 376/1/6
f 372/2/6 373/2/6 377/2/6
f 377/2/6 373/2/6 378/2/6
f 374/2/6 375/2/6 379/2/6
f 379/2/6 375/2/6 380/2/6
f 381/5/6 382/5/6 385/5/6
f 382/3/6 383/3/6 386/3/6
f 385/5/6 382/5/6 386/5/6
f 386/3/6 383/3/6 387/3/6
f 387/3/6 383/3/6 388/3/6
f 383/5/6 384/5/6 389/5/6
f 388/3/6 383/3/6 389/3/6
f 389/5/6 384/5/6 390/5/6
f 381/5/6 385/5/6 391/5/6
f 385/3/6 386/3/6 392/3/6
f 391/5/6 385/5/6 392/5/6
f 392/3/6 386/3/6 393/3/6
f 387/4/6 388/4/6 394/4/6
f 394/4/6 388/4/6 395/4/6
f 389/3/6 390/3/6 396/3/6
f 390/5/6 384/5/6 397/5/6
f 396/3/6 390/3/6 397/3/6
f 397/5/6 384/5/6 398/5/6
f 391/3/6 392/3/6 399/3/6
f 397/3/6 398/3/6 402/3/6
f 399/4/6 400/4/6 403/4/6
f 391/3/6 399/3/6 403/3/6
f 403/4/6 400/4/6 404/4/6
f 401/4/6 402/4/6 405/4/6
f 402/3/6 398/3/6 406/3/6
f 405/4/6 402/4/6 406/4/6
f 391/3/6 403/3/6 407/3/6
f 407/3/6 403/3/6 408/3/6
f 406/3/6 398/3/6 413/3/6
f 413/3/6 398/3/6 414/3/6
f 407/5/6 408/5/6 415/5/6
f 408/3/6 409/3/6 415/3/6
f 415/3/6 409/3/6 416/3/6
f 410/4/6 411/4/6 417/4/6
f 417/4/6 411/4/6 418/4/6
f 412/3/6 413/3/6 419/3/6
f 413/5/6 414/5/6 420/5/6
f 419/3/6 413/3/6 420/3/6
f 415/5/6 416/5/6 421/5/6
f 407/5/6 415/5/6 421/5/6
f 418/3/6 419/3/6 422/3/6
f 421/5/6 416/5/6 422/5/6
f 417/3/6 418/3/6 422/3/6
f 416/3/6 417/3/6 422/3/6
f 419/5/6 420/5/6 423/5/6
f 422/3/6 419/3/6 423/3/6
f 420/5/6 414/5/6 424/5/6
f 423/5/6 420/5/6 424/5/6
