# MagicaVoxel @ ephtracy

# material
mtllib crate_reinforced.mtl
usemtl palette

# normals
vn -1 0 0
vn 1 0 0
vn 0 0 1
vn 0 0 -1
vn 0 -1 0
vn 0 1 0

# texcoords
vt 0.181641 0.5
vt 0.185547 0.5
vt 0.865234 0.5
vt 0.892578 0.5
vt 0.900391 0.5

# verts
v -5 0 5
v -5 0 3
v -5 0 -3
v -5 0 -5
v -5 1 4
v -5 1 3
v -5 1 1
v -5 1 -1
v -5 1 -3
v -5 1 -4
v -5 2 5
v -5 2 4
v -5 2 3
v -5 2 1
v -5 2 -1
v -5 2 -3
v -5 2 -4
v -5 2 -5
v -5 4 4
v -5 4 3
v -5 4 -3
v -5 4 -4
v -5 6 4
v -5 6 3
v -5 6 -3
v -5 6 -4
v -5 8 5
v -5 8 4
v -5 8 -4
v -5 8 -5
v -4 1 3
v -4 1 1
v -4 1 -1
v -4 1 -3
v -4 2 4
v -4 2 3
v -4 2 1
v -4 2 -1
v -4 2 -3
v -4 2 -4
v -4 4 4
v -4 4 3
v -4 4 -3
v -4 4 -4
v -4 6 4
v -4 6 3
v -4 6 -3
v -4 6 -4
v -4 8 4
v -4 8 1
v -4 8 -1
v -4 8 -4
v -1 0 4
v -1 0 3
v -1 0 -3
v -1 0 -4
v -1 1 5
v -1 1 4
v -1 1 3
v -1 1 -3
v -1 1 -4
v -1 1 -5
v -1 2 5
v -1 2 4
v -1 2 -4
v -1 2 -5
v 3 0 4
v 3 0 3
v 3 0 1
v 3 0 -1
v 3 0 -3
v 3 0 -4
v 3 1 5
v 3 1 4
v 3 1 3
v 3 1 1
v 3 1 -1
v 3 1 -3
v 3 1 -4
v 3 1 -5
v 3 2 5
v 3 2 4
v 3 2 3
v 3 2 1
v 3 2 -1
v 3 2 -3
v 3 2 -4
v 3 2 -5
v 3 4 5
v 3 4 4
v 3 4 3
v 3 4 -3
v 3 4 -4
v 3 4 -5
v 3 6 5
v 3 6 4
v 3 6 3
v 3 6 -3
v 3 6 -4
v 3 6 -5
v 3 8 3
v 3 8 1
v 3 8 -1
v 3 8 -3
v 4 0 3
v 4 0 1
v 4 0 -1
v 4 0 -3
v 4 1 3
v 4 1 1
v 4 1 -1
v 4 1 -3
v 4 2 5
v 4 2 4
v 4 2 -4
v 4 2 -5
v 4 4 5
v 4 4 4
v 4 4 -4
v 4 4 -5
v 4 6 5
v 4 6 4
v 4 6 -4
v 4 6 -5
v 4 8 5
v 4 8 4
v 4 8 -4
v 4 8 -5
v -4 0 3
v -4 0 1
v -4 0 -1
v -4 0 -3
v -4 1 3
v -4 1 1
v -4 1 -1
v -4 1 -3
v -4 2 5
v -4 2 4
v -4 2 -4
v -4 2 -5
v -4 4 5
v -4 4 4
v -4 4 -4
v -4 4 -5
v -4 6 5
v -4 6 4
v -4 6 -4
v -4 6 -5
v -4 8 5
v -4 8 4
v -4 8 -4
v -4 8 -5
v -3 0 4
v -3 0 3
v -3 0 1
v -3 0 -1
v -3 0 -3
v -3 0 -4
v -3 1 5
v -3 1 4
v -3 1 3
v -3 1 1
v -3 1 -1
v -3 1 -3
v -3 1 -4
v -3 1 -5
v -3 2 5
v -3 2 4
v -3 2 3
v -3 2 1
v -3 2 -1
v -3 2 -3
v -3 2 -4
v -3 2 -5
v -3 4 5
v -3 4 4
v -3 4 3
v -3 4 -3
v -3 4 -4
v -3 4 -5
v -3 6 5
v -3 6 4
v -3 6 3
v -3 6 -3
v -3 6 -4
v -3 6 -5
v -3 8 3
v -3 8 1
v -3 8 -1
v -3 8 -3
v 1 0 4
v 1 0 3
v 1 0 -3
v 1 0 -4
v 1 1 5
v 1 1 4
v 1 1 3
v 1 1 -3
v 1 1 -4
v 1 1 -5
v 1 2 5
v 1 2 4
v 1 2 -4
v 1 2 -5
v 4 1 3
v 4 1 1
v 4 1 -1
v 4 1 -3
v 4 2 4
v 4 2 3
v 4 2 1
v 4 2 -1
v 4 2 -3
v 4 2 -4
v 4 4 4
v 4 4 3
v 4 4 -3
v 4 4 -4
v 4 6 4
v 4 6 3
v 4 6 -3
v 4 6 -4
v 4 8 4
v 4 8 1
v 4 8 -1
v 4 8 -4
v 5 0 5
v 5 0 3
v 5 0 -3
v 5 0 -5
v 5 1 4
v 5 1 3
v 5 1 1
v 5 1 -1
v 5 1 -3
v 5 1 -4
v 5 2 5
v 5 2 4
v 5 2 3
v 5 2 1
v 5 2 -1
v 5 2 -3
v 5 2 -4
v 5 2 -5
v 5 4 4
v 5 4 3
v 5 4 -3
v 5 4 -4
v 5 6 4
v 5 6 3
v 5 6 -3
v 5 6 -4
v 5 8 5
v 5 8 4
v 5 8 -4
v 5 8 -5
v -5 0 5
v -5 2 5
v -5 8 5
v -4 1 5
v -4 2 5
v -4 4 5
v -4 6 5
v -4 8 5
v -3 0 5
v -3 1 5
v -3 2 5
v -3 4 5
v -3 6 5
v -1 1 5
v -1 2 5
v 1 1 5
v 1 2 5
v 3 0 5
v 3 1 5
v 3 2 5
v 3 4 5
v 3 6 5
v 4 1 5
v 4 2 5
v 4 4 5
v 4 6 5
v 4 8 5
v 5 0 5
v 5 2 5
v 5 8 5
v -4 2 4
v -4 4 4
v -4 6 4
v -4 8 4
v -3 1 4
v -3 2 4
v -3 4 4
v -3 6 4
v -1 1 4
v -1 2 4
v 1 1 4
v 1 2 4
v 3 1 4
v 3 2 4
v 3 4 4
v 3 6 4
v 4 2 4
v 4 4 4
v 4 6 4
v 4 8 4
v -5 1 1
v -5 2 1
v -4 0 1
v -4 1 1
v -4 2 1
v -3 0 1
v -3 1 1
v 3 0 1
v 3 1 1
v 4 0 1
v 4 1 1
v 4 2 1
v 5 1 1
v 5 2 1
v -5 1 -3
v -5 2 -3
v -5 4 -3
v -5 6 -3
v -4 0 -3
v -4 1 -3
v -4 2 -3
v -4 4 -3
v -4 6 -3
v -3 0 -3
v -3 1 -3
v -3 2 -3
v -3 4 -3
v -3 6 -3
v -3 8 -3
v -1 0 -3
v -1 1 -3
v 1 0 -3
v 1 1 -3
v 3 0 -3
v 3 1 -3
v 3 2 -3
v 3 4 -3
v 3 6 -3
v 3 8 -3
v 4 0 -3
v 4 1 -3
v 4 2 -3
v 4 4 -3
v 4 6 -3
v 5 1 -3
v 5 2 -3
v 5 4 -3
v 5 6 -3
v -5 2 -4
v -5 4 -4
v -5 6 -4
v -5 8 -4
v -4 2 -4
v -4 4 -4
v -4 6 -4
v -4 8 -4
v -3 0 -4
v -3 1 -4
v -1 0 -4
v -1 1 -4
v 1 0 -4
v 1 1 -4
v 3 0 -4
v 3 1 -4
v 4 2 -4
v 4 4 -4
v 4 6 -4
v 4 8 -4
v 5 2 -4
v 5 4 -4
v 5 6 -4
v 5 8 -4
v -5 2 4
v -5 4 4
v -5 6 4
v -5 8 4
v -4 2 4
v -4 4 4
v -4 6 4
v -4 8 4
v -3 0 4
v -3 1 4
v -1 0 4
v -1 1 4
v 1 0 4
v 1 1 4
v 3 0 4
v 3 1 4
v 4 2 4
v 4 4 4
v 4 6 4
v 4 8 4
v 5 2 4
v 5 4 4
v 5 6 4
v 5 8 4
v -5 1 3
v -5 2 3
v -5 4 3
v -5 6 3
v -4 0 3
v -4 1 3
v -4 2 3
v -4 4 3
v -4 6 3
v -3 0 3
v -3 1 3
v -3 2 3
v -3 4 3
v -3 6 3
v -3 8 3
v -1 0 3
v -1 1 3
v 1 0 3
v 1 1 3
v 3 0 3
v 3 1 3
v 3 2 3
v 3 4 3
v 3 6 3
v 3 8 3
v 4 0 3
v 4 1 3
v 4 2 3
v 4 4 3
v 4 6 3
v 5 1 3
v 5 2 3
v 5 4 3
v 5 6 3
v -5 1 -1
v -5 2 -1
v -4 0 -1
v -4 1 -1
v -4 2 -1
v -3 0 -1
v -3 1 -1
v 3 0 -1
v 3 1 -1
v 4 0 -1
v 4 1 -1
v 4 2 -1
v 5 1 -1
v 5 2 -1
v -4 2 -4
v -4 4 -4
v -4 6 -4
v -4 8 -4
v -3 1 -4
v -3 2 -4
v -3 4 -4
v -3 6 -4
v -1 1 -4
v -1 2 -4
v 1 1 -4
v 1 2 -4
v 3 1 -4
v 3 2 -4
v 3 4 -4
v 3 6 -4
v 4 2 -4
v 4 4 -4
v 4 6 -4
v 4 8 -4
v -5 0 -5
v -5 2 -5
v -5 8 -5
v -4 1 -5
v -4 2 -5
v -4 4 -5
v -4 6 -5
v -4 8 -5
v -3 0 -5
v -3 1 -5
v -3 2 -5
v -3 4 -5
v -3 6 -5
v -1 1 -5
v -1 2 -5
v 1 1 -5
v 1 2 -5
v 3 0 -5
v 3 1 -5
v 3 2 -5
v 3 4 -5
v 3 6 -5
v 4 1 -5
v 4 2 -5
v 4 4 -5
v 4 6 -5
v 4 8 -5
v 5 0 -5
v 5 2 -5
v 5 8 -5
v -5 0 5
v -3 0 5
v 3 0 5
v 5 0 5
v -4 0 4
v -3 0 4
v -1 0 4
v 1 0 4
v 3 0 4
v 4 0 4
v -5 0 3
v -4 0 3
v -3 0 3
v -1 0 3
v 1 0 3
v 3 0 3
v 4 0 3
v 5 0 3
v -4 0 1
v -3 0 1
v 3 0 1
v 4 0 1
v -4 0 -1
v -3 0 -1
v 3 0 -1
v 4 0 -1
v -5 0 -3
v -4 0 -3
v -3 0 -3
v -1 0 -3
v 1 0 -3
v 3 0 -3
v 4 0 -3
v 5 0 -3
v -4 0 -4
v -3 0 -4
v -1 0 -4
v 1 0 -4
v 3 0 -4
v 4 0 -4
v -5 0 -5
v -3 0 -5
v 3 0 -5
v 5 0 -5
v -3 1 4
v -1 1 4
v 1 1 4
v 3 1 4
v -4 1 3
v -3 1 3
v -1 1 3
v 1 1 3
v 3 1 3
v 4 1 3
v -4 1 1
v -3 1 1
v 3 1 1
v 4 1 1
v -4 1 -1
v -3 1 -1
v 3 1 -1
v 4 1 -1
v -4 1 -3
v -3 1 -3
v -1 1 -3
v 1 1 -3
v 3 1 -3
v 4 1 -3
v -3 1 -4
v -1 1 -4
v 1 1 -4
v 3 1 -4
v -4 4 5
v -3 4 5
v 3 4 5
v 4 4 5
v -5 4 4
v -4 4 4
v -3 4 4
v 3 4 4
v 4 4 4
v 5 4 4
v -5 4 3
v -4 4 3
v 4 4 3
v 5 4 3
v -5 4 -3
v -4 4 -3
v 4 4 -3
v 5 4 -3
v -5 4 -4
v -4 4 -4
v -3 4 -4
v 3 4 -4
v 4 4 -4
v 5 4 -4
v -4 4 -5
v -3 4 -5
v 3 4 -5
v 4 4 -5
v -3 1 5
v -1 1 5
v 1 1 5
v 3 1 5
v -3 1 4
v -1 1 4
v 1 1 4
v 3 1 4
v -5 1 3
v -4 1 3
v 4 1 3
v 5 1 3
v -5 1 1
v -4 1 1
v 4 1 1
v 5 1 1
v -5 1 -1
v -4 1 -1
v 4 1 -1
v 5 1 -1
v -5 1 -3
v -4 1 -3
v 4 1 -3
v 5 1 -3
v -3 1 -4
v -1 1 -4
v 1 1 -4
v 3 1 -4
v -3 1 -5
v -1 1 -5
v 1 1 -5
v 3 1 -5
v -4 2 5
v -3 2 5
v -1 2 5
v 1 2 5
v 3 2 5
v 4 2 5
v -5 2 4
v -4 2 4
v -3 2 4
v -1 2 4
v 1 2 4
v 3 2 4
v 4 2 4
v 5 2 4
v -5 2 3
v -4 2 3
v -3 2 3
v 3 2 3
v 4 2 3
v 5 2 3
v -5 2 1
v -4 2 1
v -3 2 1
v 3 2 1
v 4 2 1
v 5 2 1
v -5 2 -1
v -4 2 -1
v -3 2 -1
v 3 2 -1
v 4 2 -1
v 5 2 -1
v -5 2 -3
v -4 2 -3
v -3 2 -3
v 3 2 -3
v 4 2 -3
v 5 2 -3
v -5 2 -4
v -4 2 -4
v -3 2 -4
v -1 2 -4
v 1 2 -4
v 3 2 -4
v 4 2 -4
v 5 2 -4
v -4 2 -5
v -3 2 -5
v -1 2 -5
v 1 2 -5
v 3 2 -5
v 4 2 -5
v -4 6 5
v -3 6 5
v 3 6 5
v 4 6 5
v -5 6 4
v -4 6 4
v -3 6 4
v 3 6 4
v 4 6 4
v 5 6 4
v -5 6 3
v -4 6 3
v 4 6 3
v 5 6 3
v -5 6 -3
v -4 6 -3
v 4 6 -3
v 5 6 -3
v -5 6 -4
v -4 6 -4
v -3 6 -4
v 3 6 -4
v 4 6 -4
v 5 6 -4
v -4 6 -5
v -3 6 -5
v 3 6 -5
v 4 6 -5
v -5 8 5
v -4 8 5
v 4 8 5
v 5 8 5
v -5 8 4
v -4 8 4
v 4 8 4
v 5 8 4
v -3 8 3
v 3 8 3
v -4 8 1
v -3 8 1
v 3 8 1
v 4 8 1
v -4 8 -1
v -3 8 -1
v 3 8 -1
v 4 8 -1
v -3 8 -3
v 3 8 -3
v -5 8 -4
v -4 8 -4
v 4 8 -4
v 5 8 -4
v -5 8 -5
v -4 8 -5
v 4 8 -5
v 5 8 -5

# faces
f 5/5/1 2/5/1 1/5/1
f 6/4/1 3/4/1 2/4/1
f 6/5/1 2/5/1 5/5/1
f 7/4/1 3/4/1 6/4/1
f 8/4/1 3/4/1 7/4/1
f 9/5/1 4/5/1 3/5/1
f 9/4/1 3/4/1 8/4/1
f 10/5/1 4/5/1 9/5/1
f 11/5/1 5/5/1 1/5/1
f 12/3/1 6/3/1 5/3/1
f 12/5/1 5/5/1 11/5/1
f 13/3/1 6/3/1 12/3/1
f 14/4/1 8/4/1 7/4/1
f 15/4/1 8/4/1 14/4/1
f 16/3/1 10/3/1 9/3/1
f 17/5/1 4/5/1 10/5/1
f 17/3/1 10/3/1 16/3/1
f 18/5/1 4/5/1 17/5/1
f 19/3/1 12/3/1 11/3/1
f 22/3/1 18/3/1 17/3/1
f 23/4/1 20/4/1 19/4/1
f 23/3/1 19/3/1 11/3/1
f 24/4/1 20/4/1 23/4/1
f 25/4/1 22/4/1 21/4/1
f 26/3/1 18/3/1 22/3/1
f 26/4/1 22/4/1 25/4/1
f 27/3/1 23/3/1 11/3/1
f 28/3/1 23/3/1 27/3/1
f 29/3/1 18/3/1 26/3/1
f 30/3/1 18/3/1 29/3/1
f 36/1/1 32/1/1 31/1/1
f 37/1/1 32/1/1 36/1/1
f 38/1/1 34/1/1 33/1/1
f 39/1/1 34/1/1 38/1/1
f 41/2/1 37/2/1 36/2/1
f 41/2/1 36/2/1 35/2/1
f 42/2/1 37/2/1 41/2/1
f 43/2/1 40/2/1 39/2/1
f 43/2/1 39/2/1 38/2/1
f 44/2/1 40/2/1 43/2/1
f 46/2/1 37/2/1 42/2/1
f 47/2/1 43/2/1 38/2/1
f 49/2/1 46/2/1 45/2/1
f 50/1/1 38/1/1 37/1/1
f 50/2/1 46/2/1 49/2/1
f 50/2/1 37/2/1 46/2/1
f 51/2/1 48/2/1 47/2/1
f 51/1/1 38/1/1 50/1/1
f 51/2/1 47/2/1 38/2/1
f 52/2/1 48/2/1 51/2/1
f 58/4/1 54/4/1 53/4/1
f 59/4/1 54/4/1 58/4/1
f 60/4/1 56/4/1 55/4/1
f 61/4/1 56/4/1 60/4/1
f 63/4/1 58/4/1 57/4/1
f 64/4/1 58/4/1 63/4/1
f 65/4/1 62/4/1 61/4/1
f 66/4/1 62/4/1 65/4/1
f 74/4/1 68/4/1 67/4/1
f 75/4/1 68/4/1 74/4/1
f 76/4/1 70/4/1 69/4/1
f 77/4/1 70/4/1 76/4/1
f 78/4/1 72/4/1 71/4/1
f 79/4/1 72/4/1 78/4/1
f 81/3/1 74/3/1 73/3/1
f 82/3/1 74/3/1 81/3/1
f 87/3/1 80/3/1 79/3/1
f 88/3/1 80/3/1 87/3/1
f 91/2/1 84/2/1 83/2/1
f 92/2/1 86/2/1 85/2/1
f 95/4/1 90/4/1 89/4/1
f 96/4/1 90/4/1 95/4/1
f 97/2/1 84/2/1 91/2/1
f 98/2/1 92/2/1 85/2/1
f 99/4/1 94/4/1 93/4/1
f 100/4/1 94/4/1 99/4/1
f 101/2/1 84/2/1 97/2/1
f 102/1/1 85/1/1 84/1/1
f 102/2/1 84/2/1 101/2/1
f 103/2/1 98/2/1 85/2/1
f 103/1/1 85/1/1 102/1/1
f 104/2/1 98/2/1 103/2/1
f 109/4/1 106/4/1 105/4/1
f 110/4/1 106/4/1 109/4/1
f 111/4/1 108/4/1 107/4/1
f 112/4/1 108/4/1 111/4/1
f 117/3/1 114/3/1 113/3/1
f 118/3/1 114/3/1 117/3/1
f 119/3/1 116/3/1 115/3/1
f 120/3/1 116/3/1 119/3/1
f 125/3/1 122/3/1 121/3/1
f 126/3/1 122/3/1 125/3/1
f 127/3/1 124/3/1 123/3/1
f 128/3/1 124/3/1 127/3/1
f 129/4/2 130/4/2 133/4/2
f 133/4/2 130/4/2 134/4/2
f 131/4/2 132/4/2 135/4/2
f 135/4/2 132/4/2 136/4/2
f 137/3/2 138/3/2 141/3/2
f 141/3/2 138/3/2 142/3/2
f 139/3/2 140/3/2 143/3/2
f 143/3/2 140/3/2 144/3/2
f 145/3/2 146/3/2 149/3/2
f 149/3/2 146/3/2 150/3/2
f 147/3/2 148/3/2 151/3/2
f 151/3/2 148/3/2 152/3/2
f 153/4/2 154/4/2 160/4/2
f 160/4/2 154/4/2 161/4/2
f 155/4/2 156/4/2 162/4/2
f 162/4/2 156/4/2 163/4/2
f 157/4/2 158/4/2 164/4/2
f 164/4/2 158/4/2 165/4/2
f 159/3/2 160/3/2 167/3/2
f 167/3/2 160/3/2 168/3/2
f 165/3/2 166/3/2 173/3/2
f 173/3/2 166/3/2 174/3/2
f 169/2/2 170/2/2 177/2/2
f 171/2/2 172/2/2 178/2/2
f 175/4/2 176/4/2 181/4/2
f 181/4/2 176/4/2 182/4/2
f 177/2/2 170/2/2 183/2/2
f 171/2/2 178/2/2 184/2/2
f 179/4/2 180/4/2 185/4/2
f 185/4/2 180/4/2 186/4/2
f 183/2/2 170/2/2 187/2/2
f 170/1/2 171/1/2 188/1/2
f 187/2/2 170/2/2 188/2/2
f 171/2/2 184/2/2 189/2/2
f 188/1/2 171/1/2 189/1/2
f 189/2/2 184/2/2 190/2/2
f 191/4/2 192/4/2 196/4/2
f 196/4/2 192/4/2 197/4/2
f 193/4/2 194/4/2 198/4/2
f 198/4/2 194/4/2 199/4/2
f 195/4/2 196/4/2 201/4/2
f 201/4/2 196/4/2 202/4/2
f 199/4/2 200/4/2 203/4/2
f 203/4/2 200/4/2 204/4/2
f 205/1/2 206/1/2 210/1/2
f 210/1/2 206/1/2 211/1/2
f 207/1/2 208/1/2 212/1/2
f 212/1/2 208/1/2 213/1/2
f 210/2/2 211/2/2 215/2/2
f 209/2/2 210/2/2 215/2/2
f 215/2/2 211/2/2 216/2/2
f 213/2/2 214/2/2 217/2/2
f 212/2/2 213/2/2 217/2/2
f 217/2/2 214/2/2 218/2/2
f 216/2/2 211/2/2 220/2/2
f 212/2/2 217/2/2 221/2/2
f 219/2/2 220/2/2 223/2/2
f 211/1/2 212/1/2 224/1/2
f 223/2/2 220/2/2 224/2/2
f 220/2/2 211/2/2 224/2/2
f 221/2/2 222/2/2 225/2/2
f 224/1/2 212/1/2 225/1/2
f 212/2/2 221/2/2 225/2/2
f 225/2/2 222/2/2 226/2/2
f 227/5/2 228/5/2 231/5/2
f 228/4/2 229/4/2 232/4/2
f 231/5/2 228/5/2 232/5/2
f 232/4/2 229/4/2 233/4/2
f 233/4/2 229/4/2 234/4/2
f 229/5/2 230/5/2 235/5/2
f 234/4/2 229/4/2 235/4/2
f 235/5/2 230/5/2 236/5/2
f 227/5/2 231/5/2 237/5/2
f 231/3/2 232/3/2 238/3/2
f 237/5/2 231/5/2 238/5/2
f 238/3/2 232/3/2 239/3/2
f 233/4/2 234/4/2 240/4/2
f 240/4/2 234/4/2 241/4/2
f 235/3/2 236/3/2 242/3/2
f 236/5/2 230/5/2 243/5/2
f 242/3/2 236/3/2 243/3/2
f 243/5/2 230/5/2 244/5/2
f 237/3/2 238/3/2 245/3/2
f 243/3/2 244/3/2 248/3/2
f 245/4/2 246/4/2 249/4/2
f 237/3/2 245/3/2 249/3/2
f 249/4/2 246/4/2 250/4/2
f 247/4/2 248/4/2 251/4/2
f 248/3/2 244/3/2 252/3/2
f 251/4/2 248/4/2 252/4/2
f 237/3/2 249/3/2 253/3/2
f 253/3/2 249/3/2 254/3/2
f 252/3/2 244/3/2 255/3/2
f 255/3/2 244/3/2 256/3/2
f 260/5/3 258/5/3 257/5/3
f 261/3/3 259/3/3 258/3/3
f 261/5/3 258/5/3 260/5/3
f 262/3/3 259/3/3 261/3/3
f 263/3/3 259/3/3 262/3/3
f 264/3/3 259/3/3 263/3/3
f 265/5/3 260/5/3 257/5/3
f 266/3/3 261/3/3 260/3/3
f 266/5/3 260/5/3 265/5/3
f 267/3/3 261/3/3 266/3/3
f 268/4/3 263/4/3 262/4/3
f 269/4/3 263/4/3 268/4/3
f 270/4/3 266/4/3 265/4/3
f 272/4/3 270/4/3 265/4/3
f 272/4/3 271/4/3 270/4/3
f 273/4/3 271/4/3 272/4/3
f 274/4/3 272/4/3 265/4/3
f 275/4/3 272/4/3 274/4/3
f 279/3/3 276/3/3 275/3/3
f 279/5/3 275/5/3 274/5/3
f 280/3/3 276/3/3 279/3/3
f 281/4/3 278/4/3 277/4/3
f 282/4/3 278/4/3 281/4/3
f 284/5/3 280/5/3 279/5/3
f 284/5/3 279/5/3 274/5/3
f 285/3/3 282/3/3 281/3/3
f 285/5/3 280/5/3 284/5/3
f 285/3/3 283/3/3 282/3/3
f 285/3/3 281/3/3 280/3/3
f 286/3/3 283/3/3 285/3/3
f 292/2/3 288/2/3 287/2/3
f 293/2/3 288/2/3 292/2/3
f 294/2/3 290/2/3 289/2/3
f 295/2/3 293/2/3 292/2/3
f 295/2/3 292/2/3 291/2/3
f 296/2/3 293/2/3 295/2/3
f 298/2/3 293/2/3 296/2/3
f 299/2/3 298/2/3 297/2/3
f 300/2/3 293/2/3 298/2/3
f 300/2/3 298/2/3 299/2/3
f 301/1/3 294/1/3 293/1/3
f 301/2/3 293/2/3 300/2/3
f 302/2/3 290/2/3 294/2/3
f 302/1/3 294/1/3 301/1/3
f 303/2/3 301/2/3 300/2/3
f 304/2/3 301/2/3 303/2/3
f 305/2/3 290/2/3 302/2/3
f 306/2/3 290/2/3 305/2/3
f 310/4/3 308/4/3 307/4/3
f 311/4/3 308/4/3 310/4/3
f 312/4/3 310/4/3 309/4/3
f 313/4/3 310/4/3 312/4/3
f 316/4/3 315/4/3 314/4/3
f 317/4/3 315/4/3 316/4/3
f 319/4/3 318/4/3 317/4/3
f 320/4/3 318/4/3 319/4/3
f 326/3/3 322/3/3 321/3/3
f 327/3/3 322/3/3 326/3/3
f 328/4/3 324/4/3 323/4/3
f 329/4/3 324/4/3 328/4/3
f 330/4/3 326/4/3 325/4/3
f 331/4/3 326/4/3 330/4/3
f 338/4/3 337/4/3 336/4/3
f 339/4/3 337/4/3 338/4/3
f 342/2/3 333/2/3 332/2/3
f 343/1/3 334/1/3 333/1/3
f 343/2/3 333/2/3 342/2/3
f 344/2/3 335/2/3 334/2/3
f 344/1/3 334/1/3 343/1/3
f 345/2/3 335/2/3 344/2/3
f 346/4/3 341/4/3 340/4/3
f 347/4/3 341/4/3 346/4/3
f 351/3/3 348/3/3 347/3/3
f 352/3/3 348/3/3 351/3/3
f 353/4/3 350/4/3 349/4/3
f 354/4/3 350/4/3 353/4/3
f 359/3/3 356/3/3 355/3/3
f 360/3/3 356/3/3 359/3/3
f 361/3/3 358/3/3 357/3/3
f 362/3/3 358/3/3 361/3/3
f 365/4/3 364/4/3 363/4/3
f 366/4/3 364/4/3 365/4/3
f 369/4/3 368/4/3 367/4/3
f 370/4/3 368/4/3 369/4/3
f 375/3/3 372/3/3 371/3/3
f 376/3/3 372/3/3 375/3/3
f 377/3/3 374/3/3 373/3/3
f 378/3/3 374/3/3 377/3/3
f 379/3/4 380/3/4 383/3/4
f 383/3/4 380/3/4 384/3/4
f 381/3/4 382/3/4 385/3/4
f 385/3/4 382/3/4 386/3/4
f 387/4/4 388/4/4 389/4/4
f 389/4/4 388/4/4 390/4/4
f 391/4/4 392/4/4 393/4/4
f 393/4/4 392/4/4 394/4/4
f 395/3/4 396/3/4 399/3/4
f 399/3/4 396/3/4 400/3/4
f 397/3/4 398/3/4 401/3/4
f 401/3/4 398/3/4 402/3/4
f 403/3/4 404/3/4 408/3/4
f 408/3/4 404/3/4 409/3/4
f 405/4/4 406/4/4 410/4/4
f 410/4/4 406/4/4 411/4/4
f 407/4/4 408/4/4 412/4/4
f 412/4/4 408/4/4 413/4/4
f 418/4/4 419/4/4 420/4/4
f 420/4/4 419/4/4 421/4/4
f 414/2/4 415/2/4 424/2/4
f 415/1/4 416/1/4 425/1/4
f 424/2/4 415/2/4 425/2/4
f 416/2/4 417/2/4 426/2/4
f 425/1/4 416/1/4 426/1/4
f 426/2/4 417/2/4 427/2/4
f 422/4/4 423/4/4 428/4/4
f 428/4/4 423/4/4 429/4/4
f 429/3/4 430/3/4 433/3/4
f 433/3/4 430/3/4 434/3/4
f 431/4/4 432/4/4 435/4/4
f 435/4/4 432/4/4 436/4/4
f 437/4/4 438/4/4 440/4/4
f 440/4/4 438/4/4 441/4/4
f 439/4/4 440/4/4 442/4/4
f 442/4/4 440/4/4 443/4/4
f 444/4/4 445/4/4 446/4/4
f 446/4/4 445/4/4 447/4/4
f 447/4/4 448/4/4 449/4/4
f 449/4/4 448/4/4 450/4/4
f 451/2/4 452/2/4 456/2/4
f 456/2/4 452/2/4 457/2/4
f 453/2/4 454/2/4 458/2/4
f 456/2/4 457/2/4 459/2/4
f 455/2/4 456/2/4 459/2/4
f 459/2/4 457/2/4 460/2/4
f 460/2/4 457/2/4 462/2/4
f 461/2/4 462/2/4 463/2/4
f 462/2/4 457/2/4 464/2/4
f 463/2/4 462/2/4 464/2/4
f 457/1/4 458/1/4 465/1/4
f 464/2/4 457/2/4 465/2/4
f 458/2/4 454/2/4 466/2/4
f 465/1/4 458/1/4 466/1/4
f 464/2/4 465/2/4 467/2/4
f 467/2/4 465/2/4 468/2/4
f 466/2/4 454/2/4 469/2/4
f 469/2/4 454/2/4 470/2/4
f 471/5/4 472/5/4 474/5/4
f 472/3/4 473/3/4 475/3/4
f 474/5/4 472/5/4 475/5/4
f 475/3/4 473/3/4 476/3/4
f 476/3/4 473/3/4 477/3/4
f 477/3/4 473/3/4 478/3/4
f 471/5/4 474/5/4 479/5/4
f 474/3/4 475/3/4 480/3/4
f 479/5/4 474/5/4 480/5/4
f 480/3/4 475/3/4 481/3/4
f 476/4/4 477/4/4 482/4/4
f 482/4/4 477/4/4 483/4/4
f 479/4/4 480/4/4 484/4/4
f 479/4/4 484/4/4 486/4/4
f 484/4/4 485/4/4 486/4/4
f 486/4/4 485/4/4 487/4/4
f 479/4/4 486/4/4 488/4/4
f 488/4/4 486/4/4 489/4/4
f 489/3/4 490/3/4 493/3/4
f 488/5/4 489/5/4 493/5/4
f 493/3/4 490/3/4 494/3/4
f 491/4/4 492/4/4 495/4/4
f 495/4/4 492/4/4 496/4/4
f 493/5/4 494/5/4 498/5/4
f 488/5/4 493/5/4 498/5/4
f 495/3/4 496/3/4 499/3/4
f 498/5/4 494/5/4 499/5/4
f 496/3/4 497/3/4 499/3/4
f 494/3/4 495/3/4 499/3/4
f 499/3/4 497/3/4 500/3/4
f 505/5/5 502/5/5 501/5/5
f 506/4/5 503/4/5 502/4/5
f 506/5/5 502/5/5 505/5/5
f 507/4/5 503/4/5 506/4/5
f 508/4/5 503/4/5 507/4/5
f 509/5/5 504/5/5 503/5/5
f 509/4/5 503/4/5 508/4/5
f 510/5/5 504/5/5 509/5/5
f 511/5/5 505/5/5 501/5/5
f 512/4/5 506/4/5 505/4/5
f 512/5/5 505/5/5 511/5/5
f 513/4/5 506/4/5 512/4/5
f 514/4/5 508/4/5 507/4/5
f 515/4/5 508/4/5 514/4/5
f 516/4/5 510/4/5 509/4/5
f 517/5/5 504/5/5 510/5/5
f 517/4/5 510/4/5 516/4/5
f 518/5/5 504/5/5 517/5/5
f 519/4/5 512/4/5 511/4/5
f 522/4/5 518/4/5 517/4/5
f 523/4/5 520/4/5 519/4/5
f 523/4/5 519/4/5 511/4/5
f 524/4/5 520/4/5 523/4/5
f 525/4/5 522/4/5 521/4/5
f 526/4/5 518/4/5 522/4/5
f 526/4/5 522/4/5 525/4/5
f 527/4/5 523/4/5 511/4/5
f 528/4/5 523/4/5 527/4/5
f 533/4/5 518/4/5 526/4/5
f 534/4/5 518/4/5 533/4/5
f 535/5/5 528/5/5 527/5/5
f 535/4/5 529/4/5 528/4/5
f 536/4/5 529/4/5 535/4/5
f 537/4/5 531/4/5 530/4/5
f 538/4/5 531/4/5 537/4/5
f 539/4/5 533/4/5 532/4/5
f 540/5/5 534/5/5 533/5/5
f 540/4/5 533/4/5 539/4/5
f 541/5/5 536/5/5 535/5/5
f 541/5/5 535/5/5 527/5/5
f 542/4/5 539/4/5 538/4/5
f 542/5/5 536/5/5 541/5/5
f 542/4/5 538/4/5 537/4/5
f 542/4/5 537/4/5 536/4/5
f 543/5/5 540/5/5 539/5/5
f 543/4/5 539/4/5 542/4/5
f 544/5/5 534/5/5 540/5/5
f 544/5/5 540/5/5 543/5/5
f 550/2/5 546/2/5 545/2/5
f 551/2/5 546/2/5 550/2/5
f 552/2/5 548/2/5 547/2/5
f 553/2/5 548/2/5 552/2/5
f 555/1/5 551/1/5 550/1/5
f 555/1/5 554/1/5 553/1/5
f 555/1/5 553/1/5 552/1/5
f 555/1/5 552/1/5 551/1/5
f 555/1/5 550/1/5 549/1/5
f 556/1/5 554/1/5 555/1/5
f 557/1/5 554/1/5 556/1/5
f 558/1/5 554/1/5 557/1/5
f 560/2/5 557/2/5 556/2/5
f 561/2/5 557/2/5 560/2/5
f 563/1/5 560/1/5 559/1/5
f 563/1/5 562/1/5 561/1/5
f 563/1/5 561/1/5 560/1/5
f 564/1/5 562/1/5 563/1/5
f 565/1/5 562/1/5 564/1/5
f 566/1/5 562/1/5 565/1/5
f 567/1/5 562/1/5 566/1/5
f 568/1/5 562/1/5 567/1/5
f 569/2/5 565/2/5 564/2/5
f 570/2/5 565/2/5 569/2/5
f 571/2/5 567/2/5 566/2/5
f 572/2/5 567/2/5 571/2/5
f 578/4/5 574/4/5 573/4/5
f 579/4/5 574/4/5 578/4/5
f 580/4/5 576/4/5 575/4/5
f 581/4/5 576/4/5 580/4/5
f 583/4/5 578/4/5 577/4/5
f 584/4/5 578/4/5 583/4/5
f 585/4/5 582/4/5 581/4/5
f 586/4/5 582/4/5 585/4/5
f 591/4/5 588/4/5 587/4/5
f 592/4/5 588/4/5 591/4/5
f 595/4/5 590/4/5 589/4/5
f 596/4/5 590/4/5 595/4/5
f 597/4/5 593/4/5 592/4/5
f 598/4/5 593/4/5 597/4/5
f 599/4/5 595/4/5 594/4/5
f 600/4/5 595/4/5 599/4/5
f 601/4/6 602/4/6 605/4/6
f 605/4/6 602/4/6 606/4/6
f 603/4/6 604/4/6 607/4/6
f 607/4/6 604/4/6 608/4/6
f 609/4/6 610/4/6 613/4/6
f 613/4/6 610/4/6 614/4/6
f 611/4/6 612/4/6 615/4/6
f 615/4/6 612/4/6 616/4/6
f 617/4/6 618/4/6 621/4/6
f 621/4/6 618/4/6 622/4/6
f 619/4/6 620/4/6 623/4/6
f 623/4/6 620/4/6 624/4/6
f 625/4/6 626/4/6 629/4/6
f 629/4/6 626/4/6 630/4/6
f 627/4/6 628/4/6 631/4/6
f 631/4/6 628/4/6 632/4/6
f 633/3/6 634/3/6 640/3/6
f 640/3/6 634/3/6 641/3/6
f 635/4/6 636/4/6 642/4/6
f 642/4/6 636/4/6 643/4/6
f 637/3/6 638/3/6 644/3/6
f 644/3/6 638/3/6 645/3/6
f 639/3/6 640/3/6 647/3/6
f 647/3/6 640/3/6 648/3/6
f 645/3/6 646/3/6 651/3/6
f 651/3/6 646/3/6 652/3/6
f 649/1/6 650/1/6 655/1/6
f 655/1/6 650/1/6 656/1/6
f 653/4/6 654/4/6 659/4/6
f 659/4/6 654/4/6 660/4/6
f 655/2/6 656/2/6 661/2/6
f 661/2/6 656/2/6 662/2/6
f 657/4/6 658/4/6 663/4/6
f 663/4/6 658/4/6 664/4/6
f 661/1/6 662/1/6 667/1/6
f 667/1/6 662/1/6 668/1/6
f 665/3/6 666/3/6 671/3/6
f 671/3/6 666/3/6 672/3/6
f 669/3/6 670/3/6 677/3/6
f 677/3/6 670/3/6 678/3/6
f 672/3/6 673/3/6 679/3/6
f 679/3/6 673/3/6 680/3/6
f 674/4/6 675/4/6 681/4/6
f 681/4/6 675/4/6 682/4/6
f 676/3/6 677/3/6 683/3/6
f 683/3/6 677/3/6 684/3/6
f 685/4/6 686/4/6 690/4/6
f 690/4/6 686/4/6 691/4/6
f 687/4/6 688/4/6 692/4/6
f 692/4/6 688/4/6 693/4/6
f 689/4/6 690/4/6 695/4/6
f 695/4/6 690/4/6 696/4/6
f 693/4/6 694/4/6 697/4/6
f 697/4/6 694/4/6 698/4/6
f 699/4/6 700/4/6 703/4/6
f 703/4/6 700/4/6 704/4/6
f 701/4/6 702/4/6 707/4/6
f 707/4/6 702/4/6 708/4/6
f 704/4/6 705/4/6 709/4/6
f 709/4/6 705/4/6 710/4/6
f 706/4/6 707/4/6 711/4/6
f 711/4/6 707/4/6 712/4/6
f 713/3/6 714/3/6 717/3/6
f 717/3/6 714/3/6 718/3/6
f 715/3/6 716/3/6 719/3/6
f 719/3/6 716/3/6 720/3/6
f 718/2/6 719/2/6 721/2/6
f 721/2/6 719/2/6 722/2/6
f 718/2/6 721/2/6 723/2/6
f 723/2/6 721/2/6 724/2/6
f 722/2/6 719/2/6 725/2/6
f 725/2/6 719/2/6 726/2/6
f 723/1/6 724/1/6 727/1/6
f 727/1/6 724/1/6 728/1/6
f 725/1/6 726/1/6 729/1/6
f 729/1/6 726/1/6 730/1/6
f 727/2/6 728/2/6 731/2/6
f 729/2/6 730/2/6 732/2/6
f 727/2/6 731/2/6 734/2/6
f 731/2/6 732/2/6 734/2/6
f 732/2/6 730/2/6 735/2/6
f 734/2/6 732/2/6 735/2/6
f 733/3/6 734/3/6 737/3/6
f 737/3/6 734/3/6 738/3/6
f 735/3/6 736/3/6 739/3/6
f 739/3/6 736/3/6 740/3/6
