# MagicaVoxel @ ephtracy

# material
mtllib chest.mtl
usemtl palette

# normals
vn -1 0 0
vn 1 0 0
vn 0 0 1
vn 0 0 -1
vn 0 -1 0
vn 0 1 0

# texcoords
vt 0.00195313 0.5
vt 0.00585938 0.5
vt 0.00976563 0.5
vt 0.0136719 0.5
vt 0.0175781 0.5
vt 0.0214844 0.5
vt 0.0253906 0.5

# verts
v -10 0 8
v -10 0 6
v -10 0 5
v -10 0 -7
v -10 0 -8
v -10 0 -10
v -10 1 7
v -10 1 6
v -10 1 -8
v -10 1 -9
v -10 2 8
v -10 2 7
v -10 2 -9
v -10 2 -10
v -10 3 2
v -10 3 -4
v -10 4 7
v -10 4 6
v -10 4 1
v -10 4 -3
v -10 4 -8
v -10 4 -9
v -10 5 8
v -10 5 5
v -10 5 -7
v -10 5 -10
v -10 6 -0
v -10 6 -2
v -10 7 1
v -10 7 -0
v -10 7 -2
v -10 7 -3
v -10 8 2
v -10 8 -0
v -10 8 -2
v -10 8 -4
v -10 9 8
v -10 9 -0
v -10 9 -2
v -10 9 -10
v -10 10 8
v -10 10 -10
v -9 0 5
v -9 0 -7
v -9 2 5
v -9 2 -7
v -9 3 2
v -9 3 -4
v -9 4 1
v -9 4 -3
v -9 5 7
v -9 5 5
v -9 5 1
v -9 5 -3
v -9 5 -7
v -9 5 -9
v -9 6 -0
v -9 6 -2
v -9 7 1
v -9 7 -0
v -9 7 -2
v -9 7 -3
v -9 8 5
v -9 8 2
v -9 8 -0
v -9 8 -2
v -9 8 -4
v -9 8 -7
v -9 9 7
v -9 9 -0
v -9 9 -2
v -9 9 -9
v -6 8 -9
v -6 8 -10
v -6 9 -9
v -6 9 -10
v 2 6 7
v 2 6 5
v 2 7 7
v 2 7 5
v 2 8 -9
v 2 8 -10
v 2 9 -9
v 2 9 -10
v 3 7 7
v 3 7 5
v 3 8 7
v 3 8 6
v 3 9 8
v 3 9 7
v 3 9 6
v 3 9 5
v 3 10 8
v 3 10 5
v 7 0 8
v 7 0 7
v 7 0 -9
v 7 0 -10
v 7 2 7
v 7 2 5
v 7 2 -7
v 7 2 -9
v 7 5 8
v 7 5 7
v 7 5 5
v 7 5 -7
v 7 5 -9
v 7 5 -10
v 7 9 5
v 7 9 -7
v 7 10 5
v 7 10 -7
v -7 0 8
v -7 0 7
v -7 0 -9
v -7 0 -10
v -7 2 7
v -7 2 5
v -7 2 -7
v -7 2 -9
v -7 5 8
v -7 5 7
v -7 5 5
v -7 5 -7
v -7 5 -9
v -7 5 -10
v -7 9 5
v -7 9 -7
v -7 10 5
v -7 10 -7
v -3 7 7
v -3 7 5
v -3 8 7
v -3 8 6
v -3 9 8
v -3 9 7
v -3 9 6
v -3 9 5
v -3 10 8
v -3 10 5
v -2 6 7
v -2 6 5
v -2 7 7
v -2 7 5
v -2 8 -9
v -2 8 -10
v -2 9 -9
v -2 9 -10
v 6 8 -9
v 6 8 -10
v 6 9 -9
v 6 9 -10
v 9 0 5
v 9 0 -7
v 9 2 5
v 9 2 -7
v 9 3 2
v 9 3 -4
v 9 4 1
v 9 4 -3
v 9 5 7
v 9 5 5
v 9 5 1
v 9 5 -3
v 9 5 -7
v 9 5 -9
v 9 6 -0
v 9 6 -2
v 9 7 1
v 9 7 -0
v 9 7 -2
v 9 7 -3
v 9 8 5
v 9 8 2
v 9 8 -0
v 9 8 -2
v 9 8 -4
v 9 8 -7
v 9 9 7
v 9 9 -0
v 9 9 -2
v 9 9 -9
v 10 0 8
v 10 0 7
v 10 0 5
v 10 0 -7
v 10 0 -8
v 10 0 -10
v 10 1 7
v 10 1 6
v 10 1 -8
v 10 1 -9
v 10 2 8
v 10 2 7
v 10 2 -9
v 10 2 -10
v 10 3 2
v 10 3 -4
v 10 4 7
v 10 4 6
v 10 4 1
v 10 4 -3
v 10 4 -8
v 10 4 -9
v 10 5 8
v 10 5 5
v 10 5 -7
v 10 5 -10
v 10 6 -0
v 10 6 -2
v 10 7 1
v 10 7 -0
v 10 7 -2
v 10 7 -3
v 10 8 2
v 10 8 -0
v 10 8 -2
v 10 8 -4
v 10 9 8
v 10 9 -0
v 10 9 -2
v 10 9 -10
v 10 10 8
v 10 10 -10
v -10 0 8
v -10 2 8
v -10 5 8
v -10 9 8
v -10 10 8
v -9 1 8
v -9 2 8
v -9 4 8
v -8 0 8
v -8 1 8
v -8 4 8
v -7 0 8
v -7 5 8
v -3 9 8
v -3 10 8
v 3 9 8
v 3 10 8
v 7 0 8
v 7 5 8
v 8 0 8
v 8 1 8
v 8 4 8
v 9 1 8
v 9 2 8
v 9 4 8
v 10 0 8
v 10 2 8
v 10 5 8
v 10 9 8
v 10 10 8
v -9 5 7
v -9 9 7
v -7 0 7
v -7 2 7
v -7 5 7
v -7 8 7
v -3 7 7
v -3 8 7
v -3 9 7
v -2 6 7
v -2 7 7
v 2 6 7
v 2 7 7
v 3 7 7
v 3 8 7
v 3 9 7
v 7 0 7
v 7 2 7
v 7 5 7
v 7 8 7
v 9 5 7
v 9 9 7
v -10 3 2
v -10 8 2
v -9 3 2
v -9 8 2
v 9 3 2
v 9 8 2
v 10 3 2
v 10 8 2
v -10 6 -0
v -10 7 -0
v -10 8 -0
v -10 9 -0
v -9 6 -0
v -9 7 -0
v -9 8 -0
v -9 9 -0
v 9 6 -0
v 9 7 -0
v 9 8 -0
v 9 9 -0
v 10 6 -0
v 10 7 -0
v 10 8 -0
v 10 9 -0
v -10 4 -3
v -10 7 -3
v -9 4 -3
v -9 5 -3
v -9 7 -3
v 9 4 -3
v 9 5 -3
v 9 7 -3
v 10 4 -3
v 10 7 -3
v -10 0 -7
v -10 5 -7
v -9 0 -7
v -9 2 -7
v -9 5 -7
v -7 2 -7
v -7 5 -7
v -7 9 -7
v -7 10 -7
v 7 2 -7
v 7 5 -7
v 7 9 -7
v 7 10 -7
v 9 0 -7
v 9 2 -7
v 9 5 -7
v 10 0 -7
v 10 5 -7
v -10 0 5
v -10 5 5
v -9 0 5
v -9 2 5
v -9 5 5
v -7 2 5
v -7 5 5
v -7 9 5
v -7 10 5
v -3 7 5
v -3 9 5
v -3 10 5
v -2 6 5
v -2 7 5
v 2 6 5
v 2 7 5
v 3 7 5
v 3 9 5
v 3 10 5
v 7 2 5
v 7 5 5
v 7 9 5
v 7 10 5
v 9 0 5
v 9 2 5
v 9 5 5
v 10 0 5
v 10 5 5
v -10 4 1
v -10 7 1
v -9 4 1
v -9 5 1
v -9 7 1
v 9 4 1
v 9 5 1
v 9 7 1
v 10 4 1
v 10 7 1
v -10 6 -2
v -10 7 -2
v -10 8 -2
v -10 9 -2
v -9 6 -2
v -9 7 -2
v -9 8 -2
v -9 9 -2
v 9 6 -2
v 9 7 -2
v 9 8 -2
v 9 9 -2
v 10 6 -2
v 10 7 -2
v 10 8 -2
v 10 9 -2
v -10 3 -4
v -10 8 -4
v -9 3 -4
v -9 8 -4
v 9 3 -4
v 9 8 -4
v 10 3 -4
v 10 8 -4
v -9 5 -9
v -9 9 -9
v -7 0 -9
v -7 2 -9
v -7 5 -9
v -7 8 -9
v -6 8 -9
v -6 9 -9
v -2 8 -9
v -2 9 -9
v 2 8 -9
v 2 9 -9
v 6 8 -9
v 6 9 -9
v 7 0 -9
v 7 2 -9
v 7 5 -9
v 7 8 -9
v 9 5 -9
v 9 9 -9
v -10 0 -10
v -10 2 -10
v -10 5 -10
v -10 9 -10
v -10 10 -10
v -9 1 -10
v -9 2 -10
v -9 4 -10
v -8 0 -10
v -8 1 -10
v -8 4 -10
v -7 0 -10
v -7 5 -10
v -6 8 -10
v -6 9 -10
v -6 10 -10
v -2 8 -10
v -2 9 -10
v -2 10 -10
v 2 8 -10
v 2 9 -10
v 2 10 -10
v 6 8 -10
v 6 9 -10
v 6 10 -10
v 7 0 -10
v 7 5 -10
v 8 0 -10
v 8 1 -10
v 8 4 -10
v 9 1 -10
v 9 2 -10
v 9 4 -10
v 10 0 -10
v 10 2 -10
v 10 5 -10
v 10 9 -10
v 10 10 -10
v -10 0 8
v -8 0 8
v -7 0 8
v 7 0 8
v 8 0 8
v 10 0 8
v -9 0 7
v -8 0 7
v -7 0 7
v 7 0 7
v 8 0 7
v 9 0 7
v 10 0 7
v -10 0 6
v -9 0 6
v -10 0 5
v -9 0 5
v 9 0 5
v 10 0 5
v -10 0 -7
v -9 0 -7
v 9 0 -7
v 10 0 -7
v -10 0 -8
v -9 0 -8
v 9 0 -8
v 10 0 -8
v -8 0 -9
v -7 0 -9
v 7 0 -9
v 8 0 -9
v -10 0 -10
v -8 0 -10
v -7 0 -10
v 7 0 -10
v 8 0 -10
v 10 0 -10
v -10 3 2
v -9 3 2
v 9 3 2
v 10 3 2
v -10 3 -4
v -9 3 -4
v 9 3 -4
v 10 3 -4
v -10 6 -0
v -9 6 -0
v 9 6 -0
v 10 6 -0
v -10 6 -2
v -9 6 -2
v 9 6 -2
v 10 6 -2
v -10 7 1
v -9 7 1
v 9 7 1
v 10 7 1
v -10 7 -0
v -9 7 -0
v 9 7 -0
v 10 7 -0
v -10 7 -2
v -9 7 -2
v 9 7 -2
v 10 7 -2
v -10 7 -3
v -9 7 -3
v 9 7 -3
v 10 7 -3
v -6 8 -9
v -2 8 -9
v 2 8 -9
v 6 8 -9
v -6 8 -10
v -2 8 -10
v 2 8 -10
v 6 8 -10
v -10 9 8
v -3 9 8
v 3 9 8
v 10 9 8
v -9 9 7
v -3 9 7
v 3 9 7
v 9 9 7
v -10 9 -0
v -9 9 -0
v 9 9 -0
v 10 9 -0
v -10 9 -2
v -9 9 -2
v 9 9 -2
v 10 9 -2
v -9 9 -9
v -6 9 -9
v -2 9 -9
v 2 9 -9
v 6 9 -9
v 9 9 -9
v -10 9 -10
v -6 9 -10
v -2 9 -10
v 2 9 -10
v 6 9 -10
v 10 9 -10
v -7 2 5
v 7 2 5
v -7 2 -7
v 7 2 -7
v -10 4 1
v -9 4 1
v 9 4 1
v 10 4 1
v -10 4 -3
v -9 4 -3
v 9 4 -3
v 10 4 -3
v -10 5 8
v -7 5 8
v 7 5 8
v 10 5 8
v -9 5 7
v -7 5 7
v 7 5 7
v 9 5 7
v -10 5 5
v -9 5 5
v 9 5 5
v 10 5 5
v -10 5 -7
v -9 5 -7
v 9 5 -7
v 10 5 -7
v -9 5 -9
v -7 5 -9
v 7 5 -9
v 9 5 -9
v -10 5 -10
v -7 5 -10
v 7 5 -10
v 10 5 -10
v -2 6 7
v 2 6 7
v -2 6 5
v 2 6 5
v -3 7 7
v -2 7 7
v 2 7 7
v 3 7 7
v -3 7 5
v -2 7 5
v 2 7 5
v 3 7 5
v -10 8 2
v -9 8 2
v 9 8 2
v 10 8 2
v -10 8 -0
v -9 8 -0
v 9 8 -0
v 10 8 -0
v -10 8 -2
v -9 8 -2
v 9 8 -2
v 10 8 -2
v -10 8 -4
v -9 8 -4
v 9 8 -4
v 10 8 -4
v -10 10 8
v -3 10 8
v 3 10 8
v 10 10 8
v -7 10 5
v -3 10 5
v 3 10 5
v 7 10 5
v -7 10 -7
v 7 10 -7
v -6 10 -9
v -2 10 -9
v 2 10 -9
v 6 10 -9
v -10 10 -10
v -6 10 -10
v -2 10 -10
v 2 10 -10
v 6 10 -10
v 10 10 -10

# faces
f 7/1/1 2/1/1 1/1/1
f 8/2/1 3/2/1 2/2/1
f 8/1/1 2/1/1 7/1/1
f 9/4/1 6/4/1 5/4/1
f 9/2/1 5/2/1 4/2/1
f 10/4/1 6/4/1 9/4/1
f 11/1/1 7/1/1 1/1/1
f 12/3/1 8/3/1 7/3/1
f 12/1/1 7/1/1 11/1/1
f 13/4/1 6/4/1 10/4/1
f 13/3/1 10/3/1 9/3/1
f 14/4/1 6/4/1 13/4/1
f 17/3/1 8/3/1 12/3/1
f 17/2/1 12/2/1 11/2/1
f 18/2/1 3/2/1 8/2/1
f 18/3/1 8/3/1 17/3/1
f 19/7/1 16/7/1 15/7/1
f 20/7/1 16/7/1 19/7/1
f 21/2/1 9/2/1 4/2/1
f 21/3/1 13/3/1 9/3/1
f 22/2/1 14/2/1 13/2/1
f 22/3/1 13/3/1 21/3/1
f 23/2/1 17/2/1 11/2/1
f 23/2/1 18/2/1 17/2/1
f 24/2/1 3/2/1 18/2/1
f 24/2/1 18/2/1 23/2/1
f 25/2/1 22/2/1 21/2/1
f 25/2/1 21/2/1 4/2/1
f 26/2/1 14/2/1 22/2/1
f 26/2/1 22/2/1 25/2/1
f 29/7/1 19/7/1 15/7/1
f 30/4/1 28/4/1 27/4/1
f 31/4/1 28/4/1 30/4/1
f 32/7/1 16/7/1 20/7/1
f 33/7/1 29/7/1 15/7/1
f 33/7/1 30/7/1 29/7/1
f 34/4/1 31/4/1 30/4/1
f 34/7/1 30/7/1 33/7/1
f 35/7/1 32/7/1 31/7/1
f 35/4/1 31/4/1 34/4/1
f 36/7/1 16/7/1 32/7/1
f 36/7/1 32/7/1 35/7/1
f 38/4/1 35/4/1 34/4/1
f 39/4/1 35/4/1 38/4/1
f 41/2/1 39/2/1 38/2/1
f 41/2/1 40/2/1 39/2/1
f 41/2/1 38/2/1 37/2/1
f 42/2/1 40/2/1 41/2/1
f 45/4/1 44/4/1 43/4/1
f 46/4/1 44/4/1 45/4/1
f 47/5/1 46/5/1 45/5/1
f 48/5/1 46/5/1 47/5/1
f 52/5/1 47/5/1 45/5/1
f 53/5/1 50/5/1 49/5/1
f 54/5/1 50/5/1 53/5/1
f 55/5/1 46/5/1 48/5/1
f 57/6/1 54/6/1 53/6/1
f 58/6/1 54/6/1 57/6/1
f 59/6/1 57/6/1 53/6/1
f 60/6/1 57/6/1 59/6/1
f 61/6/1 54/6/1 58/6/1
f 62/6/1 54/6/1 61/6/1
f 63/6/1 52/6/1 51/6/1
f 63/5/1 47/5/1 52/5/1
f 64/5/1 47/5/1 63/5/1
f 67/5/1 55/5/1 48/5/1
f 68/6/1 56/6/1 55/6/1
f 68/5/1 55/5/1 67/5/1
f 69/6/1 65/6/1 64/6/1
f 69/6/1 64/6/1 63/6/1
f 69/6/1 63/6/1 51/6/1
f 70/6/1 65/6/1 69/6/1
f 71/6/1 68/6/1 67/6/1
f 71/6/1 67/6/1 66/6/1
f 72/6/1 56/6/1 68/6/1
f 72/6/1 68/6/1 71/6/1
f 75/7/1 74/7/1 73/7/1
f 76/7/1 74/7/1 75/7/1
f 79/5/1 78/5/1 77/5/1
f 80/5/1 78/5/1 79/5/1
f 83/7/1 82/7/1 81/7/1
f 84/7/1 82/7/1 83/7/1
f 87/5/1 86/5/1 85/5/1
f 88/5/1 86/5/1 87/5/1
f 90/6/1 88/6/1 87/6/1
f 91/5/1 86/5/1 88/5/1
f 91/6/1 88/6/1 90/6/1
f 92/5/1 86/5/1 91/5/1
f 93/2/1 90/2/1 89/2/1
f 93/2/1 91/2/1 90/2/1
f 93/2/1 92/2/1 91/2/1
f 94/2/1 92/2/1 93/2/1
f 99/2/1 96/2/1 95/2/1
f 102/2/1 98/2/1 97/2/1
f 103/2/1 99/2/1 95/2/1
f 104/2/1 99/2/1 103/2/1
f 105/6/1 101/6/1 100/6/1
f 106/6/1 101/6/1 105/6/1
f 107/2/1 98/2/1 102/2/1
f 108/2/1 98/2/1 107/2/1
f 109/5/1 106/5/1 105/5/1
f 110/5/1 106/5/1 109/5/1
f 111/2/1 110/2/1 109/2/1
f 112/2/1 110/2/1 111/2/1
f 113/2/2 114/2/2 117/2/2
f 115/2/2 116/2/2 120/2/2
f 113/2/2 117/2/2 121/2/2
f 121/2/2 117/2/2 122/2/2
f 118/6/2 119/6/2 123/6/2
f 123/6/2 119/6/2 124/6/2
f 120/2/2 116/2/2 125/2/2
f 125/2/2 116/2/2 126/2/2
f 123/5/2 124/5/2 127/5/2
f 127/5/2 124/5/2 128/5/2
f 127/2/2 128/2/2 129/2/2
f 129/2/2 128/2/2 130/2/2
f 131/5/2 132/5/2 133/5/2
f 133/5/2 132/5/2 134/5/2
f 133/6/2 134/6/2 136/6/2
f 134/5/2 132/5/2 137/5/2
f 136/6/2 134/6/2 137/6/2
f 137/5/2 132/5/2 138/5/2
f 135/2/2 136/2/2 139/2/2
f 136/2/2 137/2/2 139/2/2
f 137/2/2 138/2/2 139/2/2
f 139/2/2 138/2/2 140/2/2
f 141/5/2 142/5/2 143/5/2
f 143/5/2 142/5/2 144/5/2
f 145/7/2 146/7/2 147/7/2
f 147/7/2 146/7/2 148/7/2
f 149/7/2 150/7/2 151/7/2
f 151/7/2 150/7/2 152/7/2
f 153/4/2 154/4/2 155/4/2
f 155/4/2 154/4/2 156/4/2
f 155/5/2 156/5/2 157/5/2
f 157/5/2 156/5/2 158/5/2
f 155/5/2 157/5/2 162/5/2
f 159/5/2 160/5/2 163/5/2
f 163/5/2 160/5/2 164/5/2
f 158/5/2 156/5/2 165/5/2
f 163/6/2 164/6/2 167/6/2
f 167/6/2 164/6/2 168/6/2
f 163/6/2 167/6/2 169/6/2
f 169/6/2 167/6/2 170/6/2
f 168/6/2 164/6/2 171/6/2
f 171/6/2 164/6/2 172/6/2
f 161/6/2 162/6/2 173/6/2
f 162/5/2 157/5/2 173/5/2
f 173/5/2 157/5/2 174/5/2
f 158/5/2 165/5/2 177/5/2
f 165/6/2 166/6/2 178/6/2
f 177/5/2 165/5/2 178/5/2
f 174/6/2 175/6/2 179/6/2
f 173/6/2 174/6/2 179/6/2
f 161/6/2 173/6/2 179/6/2
f 179/6/2 175/6/2 180/6/2
f 177/6/2 178/6/2 181/6/2
f 176/6/2 177/6/2 181/6/2
f 178/6/2 166/6/2 182/6/2
f 181/6/2 178/6/2 182/6/2
f 183/1/2 184/1/2 189/1/2
f 184/2/2 185/2/2 189/2/2
f 189/2/2 185/2/2 190/2/2
f 187/4/2 188/4/2 191/4/2
f 186/2/2 187/2/2 191/2/2
f 191/4/2 188/4/2 192/4/2
f 183/1/2 189/1/2 193/1/2
f 189/3/2 190/3/2 194/3/2
f 193/1/2 189/1/2 194/1/2
f 192/4/2 188/4/2 195/4/2
f 191/3/2 192/3/2 195/3/2
f 195/4/2 188/4/2 196/4/2
f 194/3/2 190/3/2 199/3/2
f 193/2/2 194/2/2 199/2/2
f 190/2/2 185/2/2 200/2/2
f 199/3/2 190/3/2 200/3/2
f 197/7/2 198/7/2 201/7/2
f 201/7/2 198/7/2 202/7/2
f 186/2/2 191/2/2 203/2/2
f 191/3/2 195/3/2 203/3/2
f 195/2/2 196/2/2 204/2/2
f 203/3/2 195/3/2 204/3/2
f 193/2/2 199/2/2 205/2/2
f 199/2/2 200/2/2 205/2/2
f 200/2/2 185/2/2 206/2/2
f 205/2/2 200/2/2 206/2/2
f 203/2/2 204/2/2 207/2/2
f 186/2/2 203/2/2 207/2/2
f 204/2/2 196/2/2 208/2/2
f 207/2/2 204/2/2 208/2/2
f 197/7/2 201/7/2 211/7/2
f 209/4/2 210/4/2 212/4/2
f 212/4/2 210/4/2 213/4/2
f 202/7/2 198/7/2 214/7/2
f 197/7/2 211/7/2 215/7/2
f 211/7/2 212/7/2 215/7/2
f 212/4/2 213/4/2 216/4/2
f 215/7/2 212/7/2 216/7/2
f 213/7/2 214/7/2 217/7/2
f 216/4/2 213/4/2 217/4/2
f 214/7/2 198/7/2 218/7/2
f 217/7/2 214/7/2 218/7/2
f 216/4/2 217/4/2 220/4/2
f 220/4/2 217/4/2 221/4/2
f 220/2/2 221/2/2 223/2/2
f 221/2/2 222/2/2 223/2/2
f 219/2/2 220/2/2 223/2/2
f 223/2/2 222/2/2 224/2/2
f 230/1/3 226/1/3 225/1/3
f 231/2/3 227/2/3 226/2/3
f 231/1/3 226/1/3 230/1/3
f 232/2/3 227/2/3 231/2/3
f 233/1/3 230/1/3 225/1/3
f 234/3/3 231/3/3 230/3/3
f 234/1/3 230/1/3 233/1/3
f 234/3/3 232/3/3 231/3/3
f 235/2/3 227/2/3 232/2/3
f 235/3/3 232/3/3 234/3/3
f 236/2/3 234/2/3 233/2/3
f 236/2/3 235/2/3 234/2/3
f 237/2/3 227/2/3 235/2/3
f 237/2/3 235/2/3 236/2/3
f 238/2/3 229/2/3 228/2/3
f 239/2/3 229/2/3 238/2/3
f 244/2/3 243/2/3 242/2/3
f 245/2/3 243/2/3 244/2/3
f 246/2/3 243/2/3 245/2/3
f 247/1/3 245/1/3 244/1/3
f 247/3/3 246/3/3 245/3/3
f 248/3/3 246/3/3 247/3/3
f 249/2/3 243/2/3 246/2/3
f 249/3/3 246/3/3 248/3/3
f 250/1/3 248/1/3 247/1/3
f 250/1/3 247/1/3 244/1/3
f 251/2/3 249/2/3 248/2/3
f 251/1/3 248/1/3 250/1/3
f 252/2/3 243/2/3 249/2/3
f 252/2/3 249/2/3 251/2/3
f 253/2/3 241/2/3 240/2/3
f 254/2/3 241/2/3 253/2/3
f 259/6/3 256/6/3 255/6/3
f 260/6/3 256/6/3 259/6/3
f 261/5/3 259/5/3 258/5/3
f 261/5/3 260/5/3 259/5/3
f 262/6/3 256/6/3 260/6/3
f 262/5/3 260/5/3 261/5/3
f 263/6/3 256/6/3 262/6/3
f 264/5/3 261/5/3 258/5/3
f 265/5/3 261/5/3 264/5/3
f 266/5/3 264/5/3 258/5/3
f 268/5/3 267/5/3 266/5/3
f 271/4/3 258/4/3 257/4/3
f 272/5/3 268/5/3 266/5/3
f 272/4/3 258/4/3 271/4/3
f 272/5/3 266/5/3 258/5/3
f 272/5/3 269/5/3 268/5/3
f 273/5/3 269/5/3 272/5/3
f 274/6/3 270/6/3 269/6/3
f 274/5/3 269/5/3 273/5/3
f 275/6/3 274/6/3 273/6/3
f 276/6/3 270/6/3 274/6/3
f 276/6/3 274/6/3 275/6/3
f 279/7/3 278/7/3 277/7/3
f 280/7/3 278/7/3 279/7/3
f 283/7/3 282/7/3 281/7/3
f 284/7/3 282/7/3 283/7/3
f 289/4/3 286/4/3 285/4/3
f 290/4/3 286/4/3 289/4/3
f 291/4/3 288/4/3 287/4/3
f 292/4/3 288/4/3 291/4/3
f 297/4/3 294/4/3 293/4/3
f 298/4/3 294/4/3 297/4/3
f 299/4/3 296/4/3 295/4/3
f 300/4/3 296/4/3 299/4/3
f 303/7/3 302/7/3 301/7/3
f 304/7/3 302/7/3 303/7/3
f 305/7/3 302/7/3 304/7/3
f 309/7/3 307/7/3 306/7/3
f 309/7/3 308/7/3 307/7/3
f 310/7/3 308/7/3 309/7/3
f 313/2/3 312/2/3 311/2/3
f 314/2/3 312/2/3 313/2/3
f 315/2/3 312/2/3 314/2/3
f 320/6/3 317/6/3 316/6/3
f 321/5/3 318/5/3 317/5/3
f 321/6/3 317/6/3 320/6/3
f 322/2/3 319/2/3 318/2/3
f 322/5/3 318/5/3 321/5/3
f 323/2/3 319/2/3 322/2/3
f 327/2/3 325/2/3 324/2/3
f 327/2/3 326/2/3 325/2/3
f 328/2/3 326/2/3 327/2/3
f 329/2/4 330/2/4 331/2/4
f 331/2/4 330/2/4 332/2/4
f 332/2/4 330/2/4 333/2/4
f 335/5/4 336/5/4 338/5/4
f 336/2/4 337/2/4 339/2/4
f 338/5/4 336/5/4 339/5/4
f 339/2/4 337/2/4 340/2/4
f 335/5/4 338/5/4 341/5/4
f 341/5/4 338/5/4 342/5/4
f 335/5/4 341/5/4 343/5/4
f 343/5/4 344/5/4 345/5/4
f 334/6/4 335/6/4 348/6/4
f 343/5/4 345/5/4 349/5/4
f 348/6/4 335/6/4 349/6/4
f 335/5/4 343/5/4 349/5/4
f 345/5/4 346/5/4 349/5/4
f 346/2/4 347/2/4 350/2/4
f 349/5/4 346/5/4 350/5/4
f 350/2/4 347/2/4 351/2/4
f 352/2/4 353/2/4 355/2/4
f 353/2/4 354/2/4 355/2/4
f 355/2/4 354/2/4 356/2/4
f 357/7/4 358/7/4 359/7/4
f 359/7/4 358/7/4 360/7/4
f 360/7/4 358/7/4 361/7/4
f 362/7/4 363/7/4 365/7/4
f 363/7/4 364/7/4 365/7/4
f 365/7/4 364/7/4 366/7/4
f 367/4/4 368/4/4 371/4/4
f 371/4/4 368/4/4 372/4/4
f 369/4/4 370/4/4 373/4/4
f 373/4/4 370/4/4 374/4/4
f 375/4/4 376/4/4 379/4/4
f 379/4/4 376/4/4 380/4/4
f 377/4/4 378/4/4 381/4/4
f 381/4/4 378/4/4 382/4/4
f 383/7/4 384/7/4 385/7/4
f 385/7/4 384/7/4 386/7/4
f 387/7/4 388/7/4 389/7/4
f 389/7/4 388/7/4 390/7/4
f 391/6/4 392/6/4 395/6/4
f 395/6/4 392/6/4 396/6/4
f 394/5/4 395/5/4 397/5/4
f 396/6/4 392/6/4 397/6/4
f 395/5/4 396/5/4 397/5/4
f 397/6/4 392/6/4 398/6/4
f 394/5/4 397/5/4 399/5/4
f 394/5/4 399/5/4 401/5/4
f 399/6/4 400/6/4 401/6/4
f 401/6/4 400/6/4 402/6/4
f 394/5/4 401/5/4 403/5/4
f 393/4/4 394/4/4 405/4/4
f 394/5/4 403/5/4 406/5/4
f 405/4/4 394/4/4 406/4/4
f 406/5/4 403/5/4 407/5/4
f 403/6/4 404/6/4 408/6/4
f 407/5/4 403/5/4 408/5/4
f 407/6/4 408/6/4 409/6/4
f 408/6/4 404/6/4 410/6/4
f 409/6/4 408/6/4 410/6/4
f 411/4/4 412/4/4 416/4/4
f 412/2/4 413/2/4 417/2/4
f 416/4/4 412/4/4 417/4/4
f 417/2/4 413/2/4 418/2/4
f 411/4/4 416/4/4 419/4/4
f 416/3/4 417/3/4 420/3/4
f 419/4/4 416/4/4 420/4/4
f 417/3/4 418/3/4 420/3/4
f 418/2/4 413/2/4 421/2/4
f 420/3/4 418/3/4 421/3/4
f 419/2/4 420/2/4 422/2/4
f 420/2/4 421/2/4 422/2/4
f 421/2/4 413/2/4 423/2/4
f 422/2/4 421/2/4 423/2/4
f 414/2/4 415/2/4 425/2/4
f 425/2/4 415/2/4 426/2/4
f 424/7/4 425/7/4 427/7/4
f 425/7/4 426/7/4 427/7/4
f 427/7/4 426/7/4 428/7/4
f 428/7/4 426/7/4 429/7/4
f 428/2/4 429/2/4 431/2/4
f 431/2/4 429/2/4 432/2/4
f 430/7/4 431/7/4 433/7/4
f 431/7/4 432/7/4 433/7/4
f 433/7/4 432/7/4 434/7/4
f 434/7/4 432/7/4 435/7/4
f 436/2/4 437/2/4 438/2/4
f 438/2/4 437/2/4 439/2/4
f 439/2/4 437/2/4 440/2/4
f 438/4/4 439/4/4 441/4/4
f 439/3/4 440/3/4 441/3/4
f 441/3/4 440/3/4 442/3/4
f 440/2/4 437/2/4 443/2/4
f 442/3/4 440/3/4 443/3/4
f 441/4/4 442/4/4 444/4/4
f 438/4/4 441/4/4 444/4/4
f 442/2/4 443/2/4 445/2/4
f 444/4/4 442/4/4 445/4/4
f 443/2/4 437/2/4 446/2/4
f 445/2/4 443/2/4 446/2/4
f 434/2/4 435/2/4 447/2/4
f 447/2/4 435/2/4 448/2/4
f 455/1/5 450/1/5 449/1/5
f 456/2/5 451/2/5 450/2/5
f 456/1/5 450/1/5 455/1/5
f 457/2/5 451/2/5 456/2/5
f 458/2/5 453/2/5 452/2/5
f 459/1/5 454/1/5 453/1/5
f 459/2/5 453/2/5 458/2/5
f 460/1/5 454/1/5 459/1/5
f 461/1/5 454/1/5 460/1/5
f 462/1/5 455/1/5 449/1/5
f 463/4/5 458/4/5 457/4/5
f 463/1/5 455/1/5 462/1/5
f 463/4/5 457/4/5 456/4/5
f 463/4/5 456/4/5 455/4/5
f 463/4/5 460/4/5 459/4/5
f 463/4/5 459/4/5 458/4/5
f 464/2/5 463/2/5 462/2/5
f 465/4/5 460/4/5 463/4/5
f 465/2/5 463/2/5 464/2/5
f 466/2/5 461/2/5 460/2/5
f 466/4/5 460/4/5 465/4/5
f 467/2/5 461/2/5 466/2/5
f 469/4/5 466/4/5 465/4/5
f 470/4/5 466/4/5 469/4/5
f 472/2/5 469/2/5 468/2/5
f 473/4/5 470/4/5 469/4/5
f 473/2/5 469/2/5 472/2/5
f 474/2/5 471/2/5 470/2/5
f 474/4/5 470/4/5 473/4/5
f 475/2/5 471/2/5 474/2/5
f 476/4/5 473/4/5 472/4/5
f 476/4/5 474/4/5 473/4/5
f 476/4/5 475/4/5 474/4/5
f 477/4/5 475/4/5 476/4/5
f 478/4/5 475/4/5 477/4/5
f 479/4/5 475/4/5 478/4/5
f 480/4/5 476/4/5 472/4/5
f 481/2/5 477/2/5 476/2/5
f 481/4/5 476/4/5 480/4/5
f 482/2/5 477/2/5 481/2/5
f 483/2/5 479/2/5 478/2/5
f 484/4/5 475/4/5 479/4/5
f 484/2/5 479/2/5 483/2/5
f 485/4/5 475/4/5 484/4/5
f 490/7/5 487/7/5 486/7/5
f 491/7/5 487/7/5 490/7/5
f 492/7/5 489/7/5 488/7/5
f 493/7/5 489/7/5 492/7/5
f 498/4/5 495/4/5 494/4/5
f 499/4/5 495/4/5 498/4/5
f 500/4/5 497/4/5 496/4/5
f 501/4/5 497/4/5 500/4/5
f 506/7/5 503/7/5 502/7/5
f 507/7/5 503/7/5 506/7/5
f 508/7/5 505/7/5 504/7/5
f 509/7/5 505/7/5 508/7/5
f 514/7/5 511/7/5 510/7/5
f 515/7/5 511/7/5 514/7/5
f 516/7/5 513/7/5 512/7/5
f 517/7/5 513/7/5 516/7/5
f 522/7/5 519/7/5 518/7/5
f 523/7/5 519/7/5 522/7/5
f 524/7/5 521/7/5 520/7/5
f 525/7/5 521/7/5 524/7/5
f 530/2/5 527/2/5 526/2/5
f 531/2/5 527/2/5 530/2/5
f 532/2/5 529/2/5 528/2/5
f 533/2/5 529/2/5 532/2/5
f 534/2/5 530/2/5 526/2/5
f 535/2/5 530/2/5 534/2/5
f 536/2/5 529/2/5 533/2/5
f 537/2/5 529/2/5 536/2/5
f 542/2/5 539/2/5 538/2/5
f 547/2/5 541/2/5 540/2/5
f 548/2/5 542/2/5 538/2/5
f 548/2/5 543/2/5 542/2/5
f 549/2/5 543/2/5 548/2/5
f 550/2/5 545/2/5 544/2/5
f 551/2/5 545/2/5 550/2/5
f 552/2/5 547/2/5 546/2/5
f 553/2/5 541/2/5 547/2/5
f 553/2/5 547/2/5 552/2/5
f 554/4/6 555/4/6 556/4/6
f 556/4/6 555/4/6 557/4/6
f 558/7/6 559/7/6 562/7/6
f 562/7/6 559/7/6 563/7/6
f 560/7/6 561/7/6 564/7/6
f 564/7/6 561/7/6 565/7/6
f 566/2/6 567/2/6 570/2/6
f 570/2/6 567/2/6 571/2/6
f 568/2/6 569/2/6 572/2/6
f 572/2/6 569/2/6 573/2/6
f 566/2/6 570/2/6 574/2/6
f 574/2/6 570/2/6 575/2/6
f 573/2/6 569/2/6 576/2/6
f 576/2/6 569/2/6 577/2/6
f 578/2/6 579/2/6 582/2/6
f 580/2/6 581/2/6 585/2/6
f 582/2/6 583/2/6 586/2/6
f 578/2/6 582/2/6 586/2/6
f 586/2/6 583/2/6 587/2/6
f 584/2/6 585/2/6 588/2/6
f 585/2/6 581/2/6 589/2/6
f 588/2/6 585/2/6 589/2/6
f 590/5/6 591/5/6 592/5/6
f 592/5/6 591/5/6 593/5/6
f 594/5/6 595/5/6 598/5/6
f 598/5/6 595/5/6 599/5/6
f 596/5/6 597/5/6 600/5/6
f 600/5/6 597/5/6 601/5/6
f 602/7/6 603/7/6 606/7/6
f 606/7/6 603/7/6 607/7/6
f 604/7/6 605/7/6 608/7/6
f 608/7/6 605/7/6 609/7/6
f 610/7/6 611/7/6 614/7/6
f 614/7/6 611/7/6 615/7/6
f 612/7/6 613/7/6 616/7/6
f 616/7/6 613/7/6 617/7/6
f 618/2/6 619/2/6 622/2/6
f 622/2/6 619/2/6 623/2/6
f 620/2/6 621/2/6 624/2/6
f 624/2/6 621/2/6 625/2/6
f 618/2/6 622/2/6 626/2/6
f 625/2/6 621/2/6 627/2/6
f 626/2/6 627/2/6 628/2/6
f 628/2/6 627/2/6 629/2/6
f 629/2/6 627/2/6 630/2/6
f 630/2/6 627/2/6 631/2/6
f 618/2/6 626/2/6 632/2/6
f 626/2/6 628/2/6 632/2/6
f 628/7/6 629/7/6 633/7/6
f 632/2/6 628/2/6 633/2/6
f 629/2/6 630/2/6 634/2/6
f 633/7/6 629/7/6 634/7/6
f 630/7/6 631/7/6 635/7/6
f 634/2/6 630/2/6 635/2/6
f 631/2/6 627/2/6 636/2/6
f 635/7/6 631/7/6 636/7/6
f 627/2/6 621/2/6 637/2/6
f 636/2/6 627/2/6 637/2/6
