# MagicaVoxel @ ephtracy

# material
mtllib lid.mtl
usemtl palette

# normals
vn -1 0 0
vn 1 0 0
vn 0 0 1
vn 0 0 -1
vn 0 -1 0
vn 0 1 0

# texcoords
vt 0.00585938 0.5
vt 0.0136719 0.5
vt 0.0175781 0.5
vt 0.0253906 0.5
vt 0.0292969 0.5
vt 0.0332031 0.5

# verts
v -10 10 8
v -10 10 7
v -10 10 -9
v -10 10 -10
v -10 11 8
v -10 11 7
v -10 11 -9
v -10 11 -10
v -10 12 8
v -10 12 -10
v -9 12 8
v -9 12 7
v -9 12 -9
v -9 12 -10
v -9 14 8
v -9 14 7
v -9 14 6
v -9 14 -8
v -9 14 -9
v -9 14 -10
v -9 16 7
v -9 16 6
v -9 16 4
v -9 16 -6
v -9 16 -8
v -9 16 -9
v -9 17 6
v -9 17 4
v -9 17 -6
v -9 17 -8
v -9 18 4
v -9 18 -6
v -3 7 8
v -3 7 5
v -3 10 8
v -3 10 5
v -2 6 8
v -2 6 5
v -2 7 8
v -2 7 5
v -2 11 -9
v -2 11 -10
v -2 12 -9
v -2 12 -10
v 1 7 8
v 1 7 7
v 1 8 8
v 1 8 7
v 2 8 8
v 2 8 7
v 2 11 8
v 2 11 7
v 6 11 -9
v 6 11 -10
v 6 12 8
v 6 12 7
v 6 14 8
v 6 14 7
v 6 14 6
v 6 14 -8
v 6 14 -9
v 6 14 -10
v 6 16 7
v 6 16 6
v 6 16 4
v 6 16 -6
v 6 16 -8
v 6 16 -9
v 6 17 6
v 6 17 4
v 6 17 -6
v 6 17 -8
v 6 18 4
v 6 18 -6
v 7 10 5
v 7 10 -7
v 7 11 5
v 7 11 -7
v 7 13 5
v 7 13 4
v 7 13 -6
v 7 13 -7
v 7 14 4
v 7 14 3
v 7 14 -5
v 7 14 -6
v 7 15 3
v 7 15 -5
v -7 10 5
v -7 10 -7
v -7 11 5
v -7 11 -7
v -7 13 5
v -7 13 4
v -7 13 -6
v -7 13 -7
v -7 14 4
v -7 14 3
v -7 14 -5
v -7 14 -6
v -7 15 3
v -7 15 -5
v -6 11 -9
v -6 11 -10
v -6 12 8
v -6 12 7
v -6 14 8
v -6 14 7
v -6 14 6
v -6 14 -8
v -6 14 -9
v -6 14 -10
v -6 16 7
v -6 16 6
v -6 16 4
v -6 16 -6
v -6 16 -8
v -6 16 -9
v -6 17 6
v -6 17 4
v -6 17 -6
v -6 17 -8
v -6 18 4
v -6 18 -6
v -2 8 8
v -2 8 7
v -2 11 8
v -2 11 7
v -1 7 8
v -1 7 7
v -1 8 8
v -1 8 7
v 2 6 8
v 2 6 5
v 2 7 8
v 2 7 5
v 2 11 -9
v 2 11 -10
v 2 12 -9
v 2 12 -10
v 3 7 8
v 3 7 5
v 3 10 8
v 3 10 5
v 9 12 8
v 9 12 7
v 9 12 -9
v 9 12 -10
v 9 14 8
v 9 14 7
v 9 14 6
v 9 14 -8
v 9 14 -9
v 9 14 -10
v 9 16 7
v 9 16 6
v 9 16 4
v 9 16 -6
v 9 16 -8
v 9 16 -9
v 9 17 6
v 9 17 4
v 9 17 -6
v 9 17 -8
v 9 18 4
v 9 18 -6
v 10 10 8
v 10 10 7
v 10 10 -9
v 10 10 -10
v 10 11 8
v 10 11 7
v 10 11 -9
v 10 11 -10
v 10 12 8
v 10 12 -10
v -10 10 8
v -10 11 8
v -10 12 8
v -9 10 8
v -9 11 8
v -9 12 8
v -9 14 8
v -6 12 8
v -6 14 8
v -3 7 8
v -3 10 8
v -3 12 8
v -2 6 8
v -2 7 8
v -2 8 8
v -2 11 8
v -1 7 8
v -1 8 8
v 1 7 8
v 1 8 8
v 2 6 8
v 2 7 8
v 2 8 8
v 2 11 8
v 3 7 8
v 3 10 8
v 3 12 8
v 6 12 8
v 6 14 8
v 9 10 8
v 9 11 8
v 9 12 8
v 9 14 8
v 10 10 8
v 10 11 8
v 10 12 8
v -9 14 7
v -9 16 7
v -6 12 7
v -6 14 7
v -6 16 7
v -3 12 7
v -2 8 7
v -2 11 7
v -1 7 7
v -1 8 7
v 1 7 7
v 1 8 7
v 2 8 7
v 2 11 7
v 3 12 7
v 6 12 7
v 6 14 7
v 6 16 7
v 9 14 7
v 9 16 7
v -9 16 6
v -9 17 6
v -6 14 6
v -6 16 6
v -6 17 6
v 6 14 6
v 6 16 6
v 6 17 6
v 9 16 6
v 9 17 6
v -9 17 4
v -9 18 4
v -6 16 4
v -6 17 4
v -6 18 4
v 6 16 4
v 6 17 4
v 6 18 4
v 9 17 4
v 9 18 4
v -7 14 -5
v -7 15 -5
v 7 14 -5
v 7 15 -5
v -7 13 -6
v -7 14 -6
v 7 13 -6
v 7 14 -6
v -7 10 -7
v -7 11 -7
v -7 13 -7
v 7 10 -7
v 7 11 -7
v 7 13 -7
v -7 10 5
v -7 11 5
v -7 13 5
v -3 7 5
v -3 10 5
v -3 11 5
v -2 6 5
v -2 7 5
v 2 6 5
v 2 7 5
v 3 7 5
v 3 10 5
v 3 11 5
v 7 10 5
v 7 11 5
v 7 13 5
v -7 13 4
v -7 14 4
v 7 13 4
v 7 14 4
v -7 14 3
v -7 15 3
v 7 14 3
v 7 15 3
v -9 17 -6
v -9 18 -6
v -6 16 -6
v -6 17 -6
v -6 18 -6
v 6 16 -6
v 6 17 -6
v 6 18 -6
v 9 17 -6
v 9 18 -6
v -9 16 -8
v -9 17 -8
v -6 14 -8
v -6 16 -8
v -6 17 -8
v 6 14 -8
v 6 16 -8
v 6 17 -8
v 9 16 -8
v 9 17 -8
v -9 14 -9
v -9 16 -9
v -6 11 -9
v -6 14 -9
v -6 16 -9
v -2 11 -9
v -2 12 -9
v 2 11 -9
v 2 12 -9
v 6 11 -9
v 6 14 -9
v 6 16 -9
v 9 14 -9
v 9 16 -9
v -10 10 -10
v -10 11 -10
v -10 12 -10
v -9 10 -10
v -9 11 -10
v -9 12 -10
v -9 14 -10
v -6 10 -10
v -6 11 -10
v -6 14 -10
v -2 10 -10
v -2 11 -10
v -2 12 -10
v 2 10 -10
v 2 11 -10
v 2 12 -10
v 6 10 -10
v 6 11 -10
v 6 14 -10
v 9 10 -10
v 9 11 -10
v 9 12 -10
v 9 14 -10
v 10 10 -10
v 10 11 -10
v 10 12 -10
v -2 6 8
v 2 6 8
v -2 6 5
v 2 6 5
v -3 7 8
v -2 7 8
v 2 7 8
v 3 7 8
v -3 7 5
v -2 7 5
v 2 7 5
v 3 7 5
v -10 10 8
v -9 10 8
v -3 10 8
v 3 10 8
v 9 10 8
v 10 10 8
v -10 10 7
v -9 10 7
v 9 10 7
v 10 10 7
v -7 10 5
v -3 10 5
v 3 10 5
v 7 10 5
v -7 10 -7
v 7 10 -7
v -10 10 -9
v -9 10 -9
v -6 10 -9
v -2 10 -9
v 2 10 -9
v 6 10 -9
v 9 10 -9
v 10 10 -9
v -10 10 -10
v -9 10 -10
v -6 10 -10
v -2 10 -10
v 2 10 -10
v 6 10 -10
v 9 10 -10
v 10 10 -10
v -2 11 8
v 2 11 8
v -2 11 7
v 2 11 7
v -7 13 5
v 7 13 5
v -7 13 4
v 7 13 4
v -7 13 -6
v 7 13 -6
v -7 13 -7
v 7 13 -7
v -7 14 4
v 7 14 4
v -7 14 3
v 7 14 3
v -7 14 -5
v 7 14 -5
v -7 14 -6
v 7 14 -6
v -7 15 3
v 7 15 3
v -7 15 -5
v 7 15 -5
v -1 7 8
v 1 7 8
v -1 7 7
v 1 7 7
v -2 8 8
v -1 8 8
v 1 8 8
v 2 8 8
v -2 8 7
v -1 8 7
v 1 8 7
v 2 8 7
v -6 11 -9
v -2 11 -9
v 2 11 -9
v 6 11 -9
v -6 11 -10
v -2 11 -10
v 2 11 -10
v 6 11 -10
v -10 12 8
v -9 12 8
v -6 12 8
v -3 12 8
v 3 12 8
v 6 12 8
v 9 12 8
v 10 12 8
v -9 12 7
v -6 12 7
v -3 12 7
v 3 12 7
v 6 12 7
v 9 12 7
v -9 12 -9
v -2 12 -9
v 2 12 -9
v 9 12 -9
v -10 12 -10
v -9 12 -10
v -2 12 -10
v 2 12 -10
v 9 12 -10
v 10 12 -10
v -9 14 8
v -6 14 8
v 6 14 8
v 9 14 8
v -9 14 7
v -6 14 7
v 6 14 7
v 9 14 7
v -6 14 6
v 6 14 6
v -6 14 -8
v 6 14 -8
v -9 14 -9
v -6 14 -9
v 6 14 -9
v 9 14 -9
v -9 14 -10
v -6 14 -10
v 6 14 -10
v 9 14 -10
v -9 16 7
v -6 16 7
v 6 16 7
v 9 16 7
v -9 16 6
v -6 16 6
v 6 16 6
v 9 16 6
v -6 16 4
v 6 16 4
v -6 16 -6
v 6 16 -6
v -9 16 -8
v -6 16 -8
v 6 16 -8
v 9 16 -8
v -9 16 -9
v -6 16 -9
v 6 16 -9
v 9 16 -9
v -9 17 6
v -6 17 6
v 6 17 6
v 9 17 6
v -9 17 4
v -6 17 4
v 6 17 4
v 9 17 4
v -9 17 -6
v -6 17 -6
v 6 17 -6
v 9 17 -6
v -9 17 -8
v -6 17 -8
v 6 17 -8
v 9 17 -8
v -9 18 4
v -6 18 4
v 6 18 4
v 9 18 4
v -9 18 -6
v -6 18 -6
v 6 18 -6
v 9 18 -6

# faces
f 5/1/1 2/1/1 1/1/1
f 6/2/1 3/2/1 2/2/1
f 6/1/1 2/1/1 5/1/1
f 7/1/1 4/1/1 3/1/1
f 7/2/1 3/2/1 6/2/1
f 8/1/1 4/1/1 7/1/1
f 9/2/1 6/2/1 5/2/1
f 9/2/1 7/2/1 6/2/1
f 9/2/1 8/2/1 7/2/1
f 10/2/1 8/2/1 9/2/1
f 15/2/1 12/2/1 11/2/1
f 16/3/1 13/3/1 12/3/1
f 16/2/1 12/2/1 15/2/1
f 17/3/1 13/3/1 16/3/1
f 18/3/1 13/3/1 17/3/1
f 19/2/1 14/2/1 13/2/1
f 19/3/1 13/3/1 18/3/1
f 20/2/1 14/2/1 19/2/1
f 21/2/1 17/2/1 16/2/1
f 22/3/1 18/3/1 17/3/1
f 22/2/1 17/2/1 21/2/1
f 23/3/1 18/3/1 22/3/1
f 24/3/1 18/3/1 23/3/1
f 25/2/1 19/2/1 18/2/1
f 25/3/1 18/3/1 24/3/1
f 26/2/1 19/2/1 25/2/1
f 27/2/1 23/2/1 22/2/1
f 28/3/1 24/3/1 23/3/1
f 28/2/1 23/2/1 27/2/1
f 29/2/1 25/2/1 24/2/1
f 29/3/1 24/3/1 28/3/1
f 30/2/1 25/2/1 29/2/1
f 31/2/1 29/2/1 28/2/1
f 32/2/1 29/2/1 31/2/1
f 35/4/1 34/4/1 33/4/1
f 36/4/1 34/4/1 35/4/1
f 39/4/1 38/4/1 37/4/1
f 40/4/1 38/4/1 39/4/1
f 43/2/1 42/2/1 41/2/1
f 44/2/1 42/2/1 43/2/1
f 47/4/1 46/4/1 45/4/1
f 48/4/1 46/4/1 47/4/1
f 51/4/1 50/4/1 49/4/1
f 52/4/1 50/4/1 51/4/1
f 57/2/1 56/2/1 55/2/1
f 58/2/1 56/2/1 57/2/1
f 61/2/1 54/2/1 53/2/1
f 62/2/1 54/2/1 61/2/1
f 63/2/1 59/2/1 58/2/1
f 64/2/1 59/2/1 63/2/1
f 67/2/1 61/2/1 60/2/1
f 68/2/1 61/2/1 67/2/1
f 69/2/1 65/2/1 64/2/1
f 70/2/1 65/2/1 69/2/1
f 71/2/1 67/2/1 66/2/1
f 72/2/1 67/2/1 71/2/1
f 73/2/1 71/2/1 70/2/1
f 74/2/1 71/2/1 73/2/1
f 77/2/1 76/2/1 75/2/1
f 78/2/1 76/2/1 77/2/1
f 79/3/1 78/3/1 77/3/1
f 80/3/1 78/3/1 79/3/1
f 81/3/1 78/3/1 80/3/1
f 82/3/1 78/3/1 81/3/1
f 83/3/1 81/3/1 80/3/1
f 84/3/1 81/3/1 83/3/1
f 85/3/1 81/3/1 84/3/1
f 86/3/1 81/3/1 85/3/1
f 87/3/1 85/3/1 84/3/1
f 88/3/1 85/3/1 87/3/1
f 89/2/2 90/2/2 91/2/2
f 91/2/2 90/2/2 92/2/2
f 91/3/2 92/3/2 93/3/2
f 93/3/2 92/3/2 94/3/2
f 94/3/2 92/3/2 95/3/2
f 95/3/2 92/3/2 96/3/2
f 94/3/2 95/3/2 97/3/2
f 97/3/2 95/3/2 98/3/2
f 98/3/2 95/3/2 99/3/2
f 99/3/2 95/3/2 100/3/2
f 98/3/2 99/3/2 101/3/2
f 101/3/2 99/3/2 102/3/2
f 105/2/2 106/2/2 107/2/2
f 107/2/2 106/2/2 108/2/2
f 103/2/2 104/2/2 111/2/2
f 111/2/2 104/2/2 112/2/2
f 108/2/2 109/2/2 113/2/2
f 113/2/2 109/2/2 114/2/2
f 110/2/2 111/2/2 117/2/2
f 117/2/2 111/2/2 118/2/2
f 114/2/2 115/2/2 119/2/2
f 119/2/2 115/2/2 120/2/2
f 116/2/2 117/2/2 121/2/2
f 121/2/2 117/2/2 122/2/2
f 120/2/2 121/2/2 123/2/2
f 123/2/2 121/2/2 124/2/2
f 125/4/2 126/4/2 127/4/2
f 127/4/2 126/4/2 128/4/2
f 129/4/2 130/4/2 131/4/2
f 131/4/2 130/4/2 132/4/2
f 133/4/2 134/4/2 135/4/2
f 135/4/2 134/4/2 136/4/2
f 137/2/2 138/2/2 139/2/2
f 139/2/2 138/2/2 140/2/2
f 141/4/2 142/4/2 143/4/2
f 143/4/2 142/4/2 144/4/2
f 145/2/2 146/2/2 149/2/2
f 146/3/2 147/3/2 150/3/2
f 149/2/2 146/2/2 150/2/2
f 150/3/2 147/3/2 151/3/2
f 151/3/2 147/3/2 152/3/2
f 147/2/2 148/2/2 153/2/2
f 152/3/2 147/3/2 153/3/2
f 153/2/2 148/2/2 154/2/2
f 150/2/2 151/2/2 155/2/2
f 151/3/2 152/3/2 156/3/2
f 155/2/2 151/2/2 156/2/2
f 156/3/2 152/3/2 157/3/2
f 157/3/2 152/3/2 158/3/2
f 152/2/2 153/2/2 159/2/2
f 158/3/2 152/3/2 159/3/2
f 159/2/2 153/2/2 160/2/2
f 156/2/2 157/2/2 161/2/2
f 157/3/2 158/3/2 162/3/2
f 161/2/2 157/2/2 162/2/2
f 158/2/2 159/2/2 163/2/2
f 162/3/2 158/3/2 163/3/2
f 163/2/2 159/2/2 164/2/2
f 162/2/2 163/2/2 165/2/2
f 165/2/2 163/2/2 166/2/2
f 167/1/2 168/1/2 171/1/2
f 168/2/2 169/2/2 172/2/2
f 171/1/2 168/1/2 172/1/2
f 169/1/2 170/1/2 173/1/2
f 172/2/2 169/2/2 173/2/2
f 173/1/2 170/1/2 174/1/2
f 171/2/2 172/2/2 175/2/2
f 172/2/2 173/2/2 175/2/2
f 173/2/2 174/2/2 175/2/2
f 175/2/2 174/2/2 176/2/2
f 180/1/3 178/1/3 177/1/3
f 181/2/3 179/2/3 178/2/3
f 181/1/3 178/1/3 180/1/3
f 182/2/3 179/2/3 181/2/3
f 184/2/3 181/2/3 180/2/3
f 184/2/3 183/2/3 182/2/3
f 184/2/3 182/2/3 181/2/3
f 185/2/3 183/2/3 184/2/3
f 187/2/3 184/2/3 180/2/3
f 188/2/3 184/2/3 187/2/3
f 190/4/3 187/4/3 186/4/3
f 190/4/3 188/4/3 187/4/3
f 191/4/3 188/4/3 190/4/3
f 192/4/3 188/4/3 191/4/3
f 193/4/3 190/4/3 189/4/3
f 193/4/3 191/4/3 190/4/3
f 194/4/3 191/4/3 193/4/3
f 195/4/3 193/4/3 189/4/3
f 197/4/3 195/4/3 189/4/3
f 197/4/3 196/4/3 195/4/3
f 198/4/3 196/4/3 197/4/3
f 199/4/3 196/4/3 198/4/3
f 200/4/3 188/4/3 192/4/3
f 201/4/3 199/4/3 198/4/3
f 201/4/3 200/4/3 199/4/3
f 202/4/3 200/4/3 201/4/3
f 203/4/3 188/4/3 200/4/3
f 203/4/3 200/4/3 202/4/3
f 204/2/3 203/2/3 202/2/3
f 206/2/3 204/2/3 202/2/3
f 206/2/3 205/2/3 204/2/3
f 207/2/3 205/2/3 206/2/3
f 208/2/3 205/2/3 207/2/3
f 209/2/3 205/2/3 208/2/3
f 210/1/3 207/1/3 206/1/3
f 211/2/3 208/2/3 207/2/3
f 211/1/3 207/1/3 210/1/3
f 212/2/3 208/2/3 211/2/3
f 216/2/3 214/2/3 213/2/3
f 217/2/3 214/2/3 216/2/3
f 218/3/3 216/3/3 215/3/3
f 222/5/3 220/5/3 219/5/3
f 223/5/3 222/5/3 221/5/3
f 224/5/3 220/5/3 222/5/3
f 224/5/3 222/5/3 223/5/3
f 225/5/3 220/5/3 224/5/3
f 226/5/3 220/5/3 225/5/3
f 227/3/3 216/3/3 218/3/3
f 228/3/3 216/3/3 227/3/3
f 229/3/3 216/3/3 228/3/3
f 231/2/3 230/2/3 229/2/3
f 232/2/3 230/2/3 231/2/3
f 236/2/3 234/2/3 233/2/3
f 237/2/3 234/2/3 236/2/3
f 238/3/3 236/3/3 235/3/3
f 239/3/3 236/3/3 238/3/3
f 241/2/3 240/2/3 239/2/3
f 242/2/3 240/2/3 241/2/3
f 246/2/3 244/2/3 243/2/3
f 247/2/3 244/2/3 246/2/3
f 248/3/3 246/3/3 245/3/3
f 249/3/3 246/3/3 248/3/3
f 251/2/3 250/2/3 249/2/3
f 252/2/3 250/2/3 251/2/3
f 255/3/3 254/3/3 253/3/3
f 256/3/3 254/3/3 255/3/3
f 259/3/3 258/3/3 257/3/3
f 260/3/3 258/3/3 259/3/3
f 264/2/3 262/2/3 261/2/3
f 265/3/3 263/3/3 262/3/3
f 265/2/3 262/2/3 264/2/3
f 266/3/3 263/3/3 265/3/3
f 267/2/4 268/2/4 271/2/4
f 268/3/4 269/3/4 272/3/4
f 271/2/4 268/2/4 272/2/4
f 270/4/4 271/4/4 274/4/4
f 271/4/4 272/4/4 274/4/4
f 273/4/4 274/4/4 275/4/4
f 274/4/4 272/4/4 276/4/4
f 275/4/4 274/4/4 276/4/4
f 276/4/4 272/4/4 277/4/4
f 277/4/4 272/4/4 278/4/4
f 272/3/4 269/3/4 279/3/4
f 278/4/4 272/4/4 279/4/4
f 278/2/4 279/2/4 280/2/4
f 279/3/4 269/3/4 281/3/4
f 280/2/4 279/2/4 281/2/4
f 281/3/4 269/3/4 282/3/4
f 283/3/4 284/3/4 285/3/4
f 285/3/4 284/3/4 286/3/4
f 287/3/4 288/3/4 289/3/4
f 289/3/4 288/3/4 290/3/4
f 291/2/4 292/2/4 294/2/4
f 294/2/4 292/2/4 295/2/4
f 293/3/4 294/3/4 296/3/4
f 296/3/4 294/3/4 297/3/4
f 297/2/4 298/2/4 299/2/4
f 299/2/4 298/2/4 300/2/4
f 301/2/4 302/2/4 304/2/4
f 304/2/4 302/2/4 305/2/4
f 303/3/4 304/3/4 306/3/4
f 306/3/4 304/3/4 307/3/4
f 307/2/4 308/2/4 309/2/4
f 309/2/4 308/2/4 310/2/4
f 311/2/4 312/2/4 314/2/4
f 314/2/4 312/2/4 315/2/4
f 313/3/4 314/3/4 316/3/4
f 316/3/4 314/3/4 317/3/4
f 317/3/4 314/3/4 319/3/4
f 318/3/4 319/3/4 320/3/4
f 319/3/4 314/3/4 321/3/4
f 320/3/4 319/3/4 321/3/4
f 321/2/4 322/2/4 323/2/4
f 323/2/4 322/2/4 324/2/4
f 325/1/4 326/1/4 328/1/4
f 326/2/4 327/2/4 329/2/4
f 328/1/4 326/1/4 329/1/4
f 329/2/4 327/2/4 330/2/4
f 328/2/4 329/2/4 332/2/4
f 330/2/4 331/2/4 332/2/4
f 329/2/4 330/2/4 332/2/4
f 332/2/4 331/2/4 333/2/4
f 333/2/4 331/2/4 334/2/4
f 332/6/4 333/6/4 335/6/4
f 335/6/4 333/6/4 336/6/4
f 335/2/4 336/2/4 338/2/4
f 336/2/4 337/2/4 338/2/4
f 338/2/4 337/2/4 339/2/4
f 339/2/4 337/2/4 340/2/4
f 338/6/4 339/6/4 341/6/4
f 341/6/4 339/6/4 342/6/4
f 341/2/4 342/2/4 344/2/4
f 342/2/4 343/2/4 344/2/4
f 344/2/4 343/2/4 345/2/4
f 345/2/4 343/2/4 346/2/4
f 346/2/4 343/2/4 347/2/4
f 344/1/4 345/1/4 348/1/4
f 345/2/4 346/2/4 349/2/4
f 348/1/4 345/1/4 349/1/4
f 349/2/4 346/2/4 350/2/4
f 353/4/5 352/4/5 351/4/5
f 354/4/5 352/4/5 353/4/5
f 359/4/5 356/4/5 355/4/5
f 360/4/5 356/4/5 359/4/5
f 361/4/5 358/4/5 357/4/5
f 362/4/5 358/4/5 361/4/5
f 369/1/5 364/1/5 363/1/5
f 370/2/5 365/2/5 364/2/5
f 370/1/5 364/1/5 369/1/5
f 371/1/5 368/1/5 367/1/5
f 371/2/5 367/2/5 366/2/5
f 372/1/5 368/1/5 371/1/5
f 373/2/5 365/2/5 370/2/5
f 373/2/5 370/2/5 369/2/5
f 374/2/5 365/2/5 373/2/5
f 375/2/5 372/2/5 371/2/5
f 375/2/5 371/2/5 366/2/5
f 376/2/5 372/2/5 375/2/5
f 377/2/5 373/2/5 369/2/5
f 378/2/5 372/2/5 376/2/5
f 379/2/5 377/2/5 369/2/5
f 379/2/5 378/2/5 377/2/5
f 380/2/5 378/2/5 379/2/5
f 381/2/5 378/2/5 380/2/5
f 382/2/5 378/2/5 381/2/5
f 383/2/5 378/2/5 382/2/5
f 384/2/5 378/2/5 383/2/5
f 385/2/5 372/2/5 378/2/5
f 385/2/5 378/2/5 384/2/5
f 386/2/5 372/2/5 385/2/5
f 387/1/5 380/1/5 379/1/5
f 388/2/5 381/2/5 380/2/5
f 388/1/5 380/1/5 387/1/5
f 389/6/5 382/6/5 381/6/5
f 389/2/5 381/2/5 388/2/5
f 390/2/5 383/2/5 382/2/5
f 390/6/5 382/6/5 389/6/5
f 391/6/5 384/6/5 383/6/5
f 391/2/5 383/2/5 390/2/5
f 392/2/5 385/2/5 384/2/5
f 392/6/5 384/6/5 391/6/5
f 393/1/5 386/1/5 385/1/5
f 393/2/5 385/2/5 392/2/5
f 394/1/5 386/1/5 393/1/5
f 397/4/5 396/4/5 395/4/5
f 398/4/5 396/4/5 397/4/5
f 401/3/5 400/3/5 399/3/5
f 402/3/5 400/3/5 401/3/5
f 405/3/5 404/3/5 403/3/5
f 406/3/5 404/3/5 405/3/5
f 409/3/5 408/3/5 407/3/5
f 410/3/5 408/3/5 409/3/5
f 413/3/5 412/3/5 411/3/5
f 414/3/5 412/3/5 413/3/5
f 417/3/5 416/3/5 415/3/5
f 418/3/5 416/3/5 417/3/5
f 419/4/6 420/4/6 421/4/6
f 421/4/6 420/4/6 422/4/6
f 423/4/6 424/4/6 427/4/6
f 427/4/6 424/4/6 428/4/6
f 425/4/6 426/4/6 429/4/6
f 429/4/6 426/4/6 430/4/6
f 431/6/6 432/6/6 435/6/6
f 435/6/6 432/6/6 436/6/6
f 433/6/6 434/6/6 437/6/6
f 437/6/6 434/6/6 438/6/6
f 439/2/6 440/2/6 447/2/6
f 441/2/6 442/2/6 448/2/6
f 442/4/6 443/4/6 449/4/6
f 448/2/6 442/2/6 449/2/6
f 443/2/6 444/2/6 450/2/6
f 449/4/6 443/4/6 450/4/6
f 450/2/6 444/2/6 451/2/6
f 445/2/6 446/2/6 452/2/6
f 439/2/6 447/2/6 453/2/6
f 452/2/6 446/2/6 456/2/6
f 439/2/6 453/2/6 457/2/6
f 457/2/6 453/2/6 458/2/6
f 454/2/6 455/2/6 459/2/6
f 459/2/6 455/2/6 460/2/6
f 456/2/6 446/2/6 461/2/6
f 461/2/6 446/2/6 462/2/6
f 463/2/6 464/2/6 467/2/6
f 467/2/6 464/2/6 468/2/6
f 465/2/6 466/2/6 469/2/6
f 469/2/6 466/2/6 470/2/6
f 468/3/6 469/3/6 471/3/6
f 471/3/6 469/3/6 472/3/6
f 473/3/6 474/3/6 476/3/6
f 476/3/6 474/3/6 477/3/6
f 475/2/6 476/2/6 479/2/6
f 479/2/6 476/2/6 480/2/6
f 477/2/6 478/2/6 481/2/6
f 481/2/6 478/2/6 482/2/6
f 483/2/6 484/2/6 487/2/6
f 487/2/6 484/2/6 488/2/6
f 485/2/6 486/2/6 489/2/6
f 489/2/6 486/2/6 490/2/6
f 488/3/6 489/3/6 491/3/6
f 491/3/6 489/3/6 492/3/6
f 493/3/6 494/3/6 496/3/6
f 496/3/6 494/3/6 497/3/6
f 495/2/6 496/2/6 499/2/6
f 499/2/6 496/2/6 500/2/6
f 497/2/6 498/2/6 501/2/6
f 501/2/6 498/2/6 502/2/6
f 503/2/6 504/2/6 507/2/6
f 507/2/6 504/2/6 508/2/6
f 505/2/6 506/2/6 509/2/6
f 509/2/6 506/2/6 510/2/6
f 508/3/6 509/3/6 512/3/6
f 512/3/6 509/3/6 513/3/6
f 511/2/6 512/2/6 515/2/6
f 515/2/6 512/2/6 516/2/6
f 513/2/6 514/2/6 517/2/6
f 517/2/6 514/2/6 518/2/6
f 519/2/6 520/2/6 523/2/6
f 523/2/6 520/2/6 524/2/6
f 521/2/6 522/2/6 525/2/6
f 525/2/6 522/2/6 526/2/6
